%TF.GenerationSoftware,KiCad,Pcbnew,9.0.3*%
%TF.CreationDate,2025-08-26T14:35:58+05:30*%
%TF.ProjectId,Project 1 LED Torch,50726f6a-6563-4742-9031-204c45442054,1*%
%TF.SameCoordinates,Original*%
%TF.FileFunction,Legend,Top*%
%TF.FilePolarity,Positive*%
%FSLAX46Y46*%
G04 Gerber Fmt 4.6, Leading zero omitted, Abs format (unit mm)*
G04 Created by KiCad (PCBNEW 9.0.3) date 2025-08-26 14:35:58*
%MOMM*%
%LPD*%
G01*
G04 APERTURE LIST*
%ADD10C,0.100000*%
%ADD11C,0.150000*%
%ADD12C,0.120000*%
G04 APERTURE END LIST*
D10*
X110803884Y-126491466D02*
X111565789Y-126491466D01*
X111184836Y-126872419D02*
X111184836Y-126110514D01*
X110803884Y-118991466D02*
X111565789Y-118991466D01*
D11*
X119833333Y-123079819D02*
X119500000Y-122603628D01*
X119261905Y-123079819D02*
X119261905Y-122079819D01*
X119261905Y-122079819D02*
X119642857Y-122079819D01*
X119642857Y-122079819D02*
X119738095Y-122127438D01*
X119738095Y-122127438D02*
X119785714Y-122175057D01*
X119785714Y-122175057D02*
X119833333Y-122270295D01*
X119833333Y-122270295D02*
X119833333Y-122413152D01*
X119833333Y-122413152D02*
X119785714Y-122508390D01*
X119785714Y-122508390D02*
X119738095Y-122556009D01*
X119738095Y-122556009D02*
X119642857Y-122603628D01*
X119642857Y-122603628D02*
X119261905Y-122603628D01*
X120785714Y-123079819D02*
X120214286Y-123079819D01*
X120500000Y-123079819D02*
X120500000Y-122079819D01*
X120500000Y-122079819D02*
X120404762Y-122222676D01*
X120404762Y-122222676D02*
X120309524Y-122317914D01*
X120309524Y-122317914D02*
X120214286Y-122365533D01*
X128166667Y-118732200D02*
X128309524Y-118779819D01*
X128309524Y-118779819D02*
X128547619Y-118779819D01*
X128547619Y-118779819D02*
X128642857Y-118732200D01*
X128642857Y-118732200D02*
X128690476Y-118684580D01*
X128690476Y-118684580D02*
X128738095Y-118589342D01*
X128738095Y-118589342D02*
X128738095Y-118494104D01*
X128738095Y-118494104D02*
X128690476Y-118398866D01*
X128690476Y-118398866D02*
X128642857Y-118351247D01*
X128642857Y-118351247D02*
X128547619Y-118303628D01*
X128547619Y-118303628D02*
X128357143Y-118256009D01*
X128357143Y-118256009D02*
X128261905Y-118208390D01*
X128261905Y-118208390D02*
X128214286Y-118160771D01*
X128214286Y-118160771D02*
X128166667Y-118065533D01*
X128166667Y-118065533D02*
X128166667Y-117970295D01*
X128166667Y-117970295D02*
X128214286Y-117875057D01*
X128214286Y-117875057D02*
X128261905Y-117827438D01*
X128261905Y-117827438D02*
X128357143Y-117779819D01*
X128357143Y-117779819D02*
X128595238Y-117779819D01*
X128595238Y-117779819D02*
X128738095Y-117827438D01*
X129071429Y-117779819D02*
X129309524Y-118779819D01*
X129309524Y-118779819D02*
X129500000Y-118065533D01*
X129500000Y-118065533D02*
X129690476Y-118779819D01*
X129690476Y-118779819D02*
X129928572Y-117779819D01*
X130833333Y-118779819D02*
X130261905Y-118779819D01*
X130547619Y-118779819D02*
X130547619Y-117779819D01*
X130547619Y-117779819D02*
X130452381Y-117922676D01*
X130452381Y-117922676D02*
X130357143Y-118017914D01*
X130357143Y-118017914D02*
X130261905Y-118065533D01*
X114761905Y-125954819D02*
X114761905Y-124954819D01*
X114761905Y-124954819D02*
X115000000Y-124954819D01*
X115000000Y-124954819D02*
X115142857Y-125002438D01*
X115142857Y-125002438D02*
X115238095Y-125097676D01*
X115238095Y-125097676D02*
X115285714Y-125192914D01*
X115285714Y-125192914D02*
X115333333Y-125383390D01*
X115333333Y-125383390D02*
X115333333Y-125526247D01*
X115333333Y-125526247D02*
X115285714Y-125716723D01*
X115285714Y-125716723D02*
X115238095Y-125811961D01*
X115238095Y-125811961D02*
X115142857Y-125907200D01*
X115142857Y-125907200D02*
X115000000Y-125954819D01*
X115000000Y-125954819D02*
X114761905Y-125954819D01*
X116285714Y-125954819D02*
X115714286Y-125954819D01*
X116000000Y-125954819D02*
X116000000Y-124954819D01*
X116000000Y-124954819D02*
X115904762Y-125097676D01*
X115904762Y-125097676D02*
X115809524Y-125192914D01*
X115809524Y-125192914D02*
X115714286Y-125240533D01*
X107494819Y-123262857D02*
X107494819Y-123739047D01*
X107494819Y-123739047D02*
X106494819Y-123739047D01*
X106971009Y-122929523D02*
X106971009Y-122596190D01*
X107494819Y-122453333D02*
X107494819Y-122929523D01*
X107494819Y-122929523D02*
X106494819Y-122929523D01*
X106494819Y-122929523D02*
X106494819Y-122453333D01*
X107494819Y-122024761D02*
X106494819Y-122024761D01*
X106494819Y-122024761D02*
X106494819Y-121786666D01*
X106494819Y-121786666D02*
X106542438Y-121643809D01*
X106542438Y-121643809D02*
X106637676Y-121548571D01*
X106637676Y-121548571D02*
X106732914Y-121500952D01*
X106732914Y-121500952D02*
X106923390Y-121453333D01*
X106923390Y-121453333D02*
X107066247Y-121453333D01*
X107066247Y-121453333D02*
X107256723Y-121500952D01*
X107256723Y-121500952D02*
X107351961Y-121548571D01*
X107351961Y-121548571D02*
X107447200Y-121643809D01*
X107447200Y-121643809D02*
X107494819Y-121786666D01*
X107494819Y-121786666D02*
X107494819Y-122024761D01*
X151214285Y-114936009D02*
X151357142Y-114983628D01*
X151357142Y-114983628D02*
X151404761Y-115031247D01*
X151404761Y-115031247D02*
X151452380Y-115126485D01*
X151452380Y-115126485D02*
X151452380Y-115269342D01*
X151452380Y-115269342D02*
X151404761Y-115364580D01*
X151404761Y-115364580D02*
X151357142Y-115412200D01*
X151357142Y-115412200D02*
X151261904Y-115459819D01*
X151261904Y-115459819D02*
X150880952Y-115459819D01*
X150880952Y-115459819D02*
X150880952Y-114459819D01*
X150880952Y-114459819D02*
X151214285Y-114459819D01*
X151214285Y-114459819D02*
X151309523Y-114507438D01*
X151309523Y-114507438D02*
X151357142Y-114555057D01*
X151357142Y-114555057D02*
X151404761Y-114650295D01*
X151404761Y-114650295D02*
X151404761Y-114745533D01*
X151404761Y-114745533D02*
X151357142Y-114840771D01*
X151357142Y-114840771D02*
X151309523Y-114888390D01*
X151309523Y-114888390D02*
X151214285Y-114936009D01*
X151214285Y-114936009D02*
X150880952Y-114936009D01*
X151738095Y-114459819D02*
X152309523Y-114459819D01*
X152023809Y-115459819D02*
X152023809Y-114459819D01*
X153166666Y-115459819D02*
X152595238Y-115459819D01*
X152880952Y-115459819D02*
X152880952Y-114459819D01*
X152880952Y-114459819D02*
X152785714Y-114602676D01*
X152785714Y-114602676D02*
X152690476Y-114697914D01*
X152690476Y-114697914D02*
X152595238Y-114745533D01*
X149047618Y-133431009D02*
X149190475Y-133478628D01*
X149190475Y-133478628D02*
X149238094Y-133526247D01*
X149238094Y-133526247D02*
X149285713Y-133621485D01*
X149285713Y-133621485D02*
X149285713Y-133764342D01*
X149285713Y-133764342D02*
X149238094Y-133859580D01*
X149238094Y-133859580D02*
X149190475Y-133907200D01*
X149190475Y-133907200D02*
X149095237Y-133954819D01*
X149095237Y-133954819D02*
X148714285Y-133954819D01*
X148714285Y-133954819D02*
X148714285Y-132954819D01*
X148714285Y-132954819D02*
X149047618Y-132954819D01*
X149047618Y-132954819D02*
X149142856Y-133002438D01*
X149142856Y-133002438D02*
X149190475Y-133050057D01*
X149190475Y-133050057D02*
X149238094Y-133145295D01*
X149238094Y-133145295D02*
X149238094Y-133240533D01*
X149238094Y-133240533D02*
X149190475Y-133335771D01*
X149190475Y-133335771D02*
X149142856Y-133383390D01*
X149142856Y-133383390D02*
X149047618Y-133431009D01*
X149047618Y-133431009D02*
X148714285Y-133431009D01*
X150142856Y-133954819D02*
X150142856Y-133431009D01*
X150142856Y-133431009D02*
X150095237Y-133335771D01*
X150095237Y-133335771D02*
X149999999Y-133288152D01*
X149999999Y-133288152D02*
X149809523Y-133288152D01*
X149809523Y-133288152D02*
X149714285Y-133335771D01*
X150142856Y-133907200D02*
X150047618Y-133954819D01*
X150047618Y-133954819D02*
X149809523Y-133954819D01*
X149809523Y-133954819D02*
X149714285Y-133907200D01*
X149714285Y-133907200D02*
X149666666Y-133811961D01*
X149666666Y-133811961D02*
X149666666Y-133716723D01*
X149666666Y-133716723D02*
X149714285Y-133621485D01*
X149714285Y-133621485D02*
X149809523Y-133573866D01*
X149809523Y-133573866D02*
X150047618Y-133573866D01*
X150047618Y-133573866D02*
X150142856Y-133526247D01*
X150476190Y-133288152D02*
X150857142Y-133288152D01*
X150619047Y-132954819D02*
X150619047Y-133811961D01*
X150619047Y-133811961D02*
X150666666Y-133907200D01*
X150666666Y-133907200D02*
X150761904Y-133954819D01*
X150761904Y-133954819D02*
X150857142Y-133954819D01*
X151904762Y-133050057D02*
X151952381Y-133002438D01*
X151952381Y-133002438D02*
X152047619Y-132954819D01*
X152047619Y-132954819D02*
X152285714Y-132954819D01*
X152285714Y-132954819D02*
X152380952Y-133002438D01*
X152380952Y-133002438D02*
X152428571Y-133050057D01*
X152428571Y-133050057D02*
X152476190Y-133145295D01*
X152476190Y-133145295D02*
X152476190Y-133240533D01*
X152476190Y-133240533D02*
X152428571Y-133383390D01*
X152428571Y-133383390D02*
X151857143Y-133954819D01*
X151857143Y-133954819D02*
X152476190Y-133954819D01*
X153095238Y-132954819D02*
X153190476Y-132954819D01*
X153190476Y-132954819D02*
X153285714Y-133002438D01*
X153285714Y-133002438D02*
X153333333Y-133050057D01*
X153333333Y-133050057D02*
X153380952Y-133145295D01*
X153380952Y-133145295D02*
X153428571Y-133335771D01*
X153428571Y-133335771D02*
X153428571Y-133573866D01*
X153428571Y-133573866D02*
X153380952Y-133764342D01*
X153380952Y-133764342D02*
X153333333Y-133859580D01*
X153333333Y-133859580D02*
X153285714Y-133907200D01*
X153285714Y-133907200D02*
X153190476Y-133954819D01*
X153190476Y-133954819D02*
X153095238Y-133954819D01*
X153095238Y-133954819D02*
X153000000Y-133907200D01*
X153000000Y-133907200D02*
X152952381Y-133859580D01*
X152952381Y-133859580D02*
X152904762Y-133764342D01*
X152904762Y-133764342D02*
X152857143Y-133573866D01*
X152857143Y-133573866D02*
X152857143Y-133335771D01*
X152857143Y-133335771D02*
X152904762Y-133145295D01*
X152904762Y-133145295D02*
X152952381Y-133050057D01*
X152952381Y-133050057D02*
X153000000Y-133002438D01*
X153000000Y-133002438D02*
X153095238Y-132954819D01*
X153761905Y-132954819D02*
X154380952Y-132954819D01*
X154380952Y-132954819D02*
X154047619Y-133335771D01*
X154047619Y-133335771D02*
X154190476Y-133335771D01*
X154190476Y-133335771D02*
X154285714Y-133383390D01*
X154285714Y-133383390D02*
X154333333Y-133431009D01*
X154333333Y-133431009D02*
X154380952Y-133526247D01*
X154380952Y-133526247D02*
X154380952Y-133764342D01*
X154380952Y-133764342D02*
X154333333Y-133859580D01*
X154333333Y-133859580D02*
X154285714Y-133907200D01*
X154285714Y-133907200D02*
X154190476Y-133954819D01*
X154190476Y-133954819D02*
X153904762Y-133954819D01*
X153904762Y-133954819D02*
X153809524Y-133907200D01*
X153809524Y-133907200D02*
X153761905Y-133859580D01*
X154761905Y-133050057D02*
X154809524Y-133002438D01*
X154809524Y-133002438D02*
X154904762Y-132954819D01*
X154904762Y-132954819D02*
X155142857Y-132954819D01*
X155142857Y-132954819D02*
X155238095Y-133002438D01*
X155238095Y-133002438D02*
X155285714Y-133050057D01*
X155285714Y-133050057D02*
X155333333Y-133145295D01*
X155333333Y-133145295D02*
X155333333Y-133240533D01*
X155333333Y-133240533D02*
X155285714Y-133383390D01*
X155285714Y-133383390D02*
X154714286Y-133954819D01*
X154714286Y-133954819D02*
X155333333Y-133954819D01*
D12*
%TO.C,R1*%
X122000000Y-119755000D02*
X122000000Y-120705000D01*
X122000000Y-125495000D02*
X122000000Y-124545000D01*
X121080000Y-124545000D02*
X122920000Y-124545000D01*
X122920000Y-120705000D01*
X121080000Y-120705000D01*
X121080000Y-124545000D01*
%TO.C,SW1*%
X126380000Y-123775000D02*
X126380000Y-121575000D01*
X126850000Y-125745000D02*
X132050000Y-125745000D01*
X127450000Y-119505000D02*
X131850000Y-119505000D01*
X132620000Y-121575000D02*
X132620000Y-123775000D01*
X130914214Y-122625000D02*
G75*
G02*
X128085786Y-122625000I-1414214J0D01*
G01*
X128085786Y-122625000D02*
G75*
G02*
X130914214Y-122625000I1414214J0D01*
G01*
%TO.C,D1*%
X112545000Y-120060000D02*
X109455000Y-120060000D01*
X111000000Y-125610000D02*
G75*
G02*
X109455170Y-120060000I0J2990000D01*
G01*
X112544830Y-120060000D02*
G75*
G02*
X111000000Y-125610000I-1544830J-2560000D01*
G01*
X113500000Y-122620000D02*
G75*
G02*
X108500000Y-122620000I-2500000J0D01*
G01*
X108500000Y-122620000D02*
G75*
G02*
X113500000Y-122620000I2500000J0D01*
G01*
%TO.C,BT1*%
X137690000Y-119015000D02*
X141308000Y-119015000D01*
X137690000Y-120725000D02*
X137690000Y-119015000D01*
X137690000Y-124525000D02*
X137690000Y-126235000D01*
X141308000Y-126235000D02*
X137690000Y-126235000D01*
X144152700Y-114515000D02*
X148140000Y-114515000D01*
X150340000Y-116715000D02*
X148140000Y-114515000D01*
X150340000Y-116715000D02*
X153660000Y-116715000D01*
X153660000Y-116715000D02*
X155860000Y-114515000D01*
X155860000Y-114515000D02*
X159847300Y-114515000D01*
X159847300Y-130735000D02*
X144152700Y-130735000D01*
X162692000Y-119015000D02*
X166310000Y-119015000D01*
X166310000Y-120725000D02*
X166310000Y-119015000D01*
X166310000Y-124525000D02*
X166310000Y-126235000D01*
X166310000Y-126235000D02*
X162692000Y-126235000D01*
X141308000Y-119015000D02*
G75*
G02*
X144154629Y-114513211I10692020J-3610012D01*
G01*
X144154629Y-130736789D02*
G75*
G02*
X141308000Y-126235000I7845371J8111789D01*
G01*
X159845371Y-114513211D02*
G75*
G02*
X162692000Y-119015000I-7845366J-8111785D01*
G01*
X162692000Y-126235000D02*
G75*
G02*
X159845372Y-130736790I-10692020J3610010D01*
G01*
%TD*%
M02*
