%TF.GenerationSoftware,KiCad,Pcbnew,9.0.3*%
%TF.CreationDate,2025-08-26T14:35:58+05:30*%
%TF.ProjectId,Project 1 LED Torch,50726f6a-6563-4742-9031-204c45442054,1*%
%TF.SameCoordinates,Original*%
%TF.FileFunction,Legend,Bot*%
%TF.FilePolarity,Positive*%
%FSLAX46Y46*%
G04 Gerber Fmt 4.6, Leading zero omitted, Abs format (unit mm)*
G04 Created by KiCad (PCBNEW 9.0.3) date 2025-08-26 14:35:58*
%MOMM*%
%LPD*%
G01*
G04 APERTURE LIST*
%ADD10C,0.100000*%
%ADD11C,0.010000*%
G04 APERTURE END LIST*
D10*
X156338972Y-125872419D02*
X156005639Y-126872419D01*
X156005639Y-126872419D02*
X155672306Y-125872419D01*
X154958020Y-126824800D02*
X155053258Y-126872419D01*
X155053258Y-126872419D02*
X155243734Y-126872419D01*
X155243734Y-126872419D02*
X155338972Y-126824800D01*
X155338972Y-126824800D02*
X155386591Y-126729561D01*
X155386591Y-126729561D02*
X155386591Y-126348609D01*
X155386591Y-126348609D02*
X155338972Y-126253371D01*
X155338972Y-126253371D02*
X155243734Y-126205752D01*
X155243734Y-126205752D02*
X155053258Y-126205752D01*
X155053258Y-126205752D02*
X154958020Y-126253371D01*
X154958020Y-126253371D02*
X154910401Y-126348609D01*
X154910401Y-126348609D02*
X154910401Y-126443847D01*
X154910401Y-126443847D02*
X155386591Y-126539085D01*
X154481829Y-126872419D02*
X154481829Y-126205752D01*
X154481829Y-126396228D02*
X154434210Y-126300990D01*
X154434210Y-126300990D02*
X154386591Y-126253371D01*
X154386591Y-126253371D02*
X154291353Y-126205752D01*
X154291353Y-126205752D02*
X154196115Y-126205752D01*
X153910400Y-126824800D02*
X153815162Y-126872419D01*
X153815162Y-126872419D02*
X153624686Y-126872419D01*
X153624686Y-126872419D02*
X153529448Y-126824800D01*
X153529448Y-126824800D02*
X153481829Y-126729561D01*
X153481829Y-126729561D02*
X153481829Y-126681942D01*
X153481829Y-126681942D02*
X153529448Y-126586704D01*
X153529448Y-126586704D02*
X153624686Y-126539085D01*
X153624686Y-126539085D02*
X153767543Y-126539085D01*
X153767543Y-126539085D02*
X153862781Y-126491466D01*
X153862781Y-126491466D02*
X153910400Y-126396228D01*
X153910400Y-126396228D02*
X153910400Y-126348609D01*
X153910400Y-126348609D02*
X153862781Y-126253371D01*
X153862781Y-126253371D02*
X153767543Y-126205752D01*
X153767543Y-126205752D02*
X153624686Y-126205752D01*
X153624686Y-126205752D02*
X153529448Y-126253371D01*
X153053257Y-126872419D02*
X153053257Y-126205752D01*
X153053257Y-125872419D02*
X153100876Y-125920038D01*
X153100876Y-125920038D02*
X153053257Y-125967657D01*
X153053257Y-125967657D02*
X153005638Y-125920038D01*
X153005638Y-125920038D02*
X153053257Y-125872419D01*
X153053257Y-125872419D02*
X153053257Y-125967657D01*
X152434210Y-126872419D02*
X152529448Y-126824800D01*
X152529448Y-126824800D02*
X152577067Y-126777180D01*
X152577067Y-126777180D02*
X152624686Y-126681942D01*
X152624686Y-126681942D02*
X152624686Y-126396228D01*
X152624686Y-126396228D02*
X152577067Y-126300990D01*
X152577067Y-126300990D02*
X152529448Y-126253371D01*
X152529448Y-126253371D02*
X152434210Y-126205752D01*
X152434210Y-126205752D02*
X152291353Y-126205752D01*
X152291353Y-126205752D02*
X152196115Y-126253371D01*
X152196115Y-126253371D02*
X152148496Y-126300990D01*
X152148496Y-126300990D02*
X152100877Y-126396228D01*
X152100877Y-126396228D02*
X152100877Y-126681942D01*
X152100877Y-126681942D02*
X152148496Y-126777180D01*
X152148496Y-126777180D02*
X152196115Y-126824800D01*
X152196115Y-126824800D02*
X152291353Y-126872419D01*
X152291353Y-126872419D02*
X152434210Y-126872419D01*
X151672305Y-126205752D02*
X151672305Y-126872419D01*
X151672305Y-126300990D02*
X151624686Y-126253371D01*
X151624686Y-126253371D02*
X151529448Y-126205752D01*
X151529448Y-126205752D02*
X151386591Y-126205752D01*
X151386591Y-126205752D02*
X151291353Y-126253371D01*
X151291353Y-126253371D02*
X151243734Y-126348609D01*
X151243734Y-126348609D02*
X151243734Y-126872419D01*
X149481829Y-126872419D02*
X150053257Y-126872419D01*
X149767543Y-126872419D02*
X149767543Y-125872419D01*
X149767543Y-125872419D02*
X149862781Y-126015276D01*
X149862781Y-126015276D02*
X149958019Y-126110514D01*
X149958019Y-126110514D02*
X150053257Y-126158133D01*
X149053257Y-126777180D02*
X149005638Y-126824800D01*
X149005638Y-126824800D02*
X149053257Y-126872419D01*
X149053257Y-126872419D02*
X149100876Y-126824800D01*
X149100876Y-126824800D02*
X149053257Y-126777180D01*
X149053257Y-126777180D02*
X149053257Y-126872419D01*
X148386591Y-125872419D02*
X148291353Y-125872419D01*
X148291353Y-125872419D02*
X148196115Y-125920038D01*
X148196115Y-125920038D02*
X148148496Y-125967657D01*
X148148496Y-125967657D02*
X148100877Y-126062895D01*
X148100877Y-126062895D02*
X148053258Y-126253371D01*
X148053258Y-126253371D02*
X148053258Y-126491466D01*
X148053258Y-126491466D02*
X148100877Y-126681942D01*
X148100877Y-126681942D02*
X148148496Y-126777180D01*
X148148496Y-126777180D02*
X148196115Y-126824800D01*
X148196115Y-126824800D02*
X148291353Y-126872419D01*
X148291353Y-126872419D02*
X148386591Y-126872419D01*
X148386591Y-126872419D02*
X148481829Y-126824800D01*
X148481829Y-126824800D02*
X148529448Y-126777180D01*
X148529448Y-126777180D02*
X148577067Y-126681942D01*
X148577067Y-126681942D02*
X148624686Y-126491466D01*
X148624686Y-126491466D02*
X148624686Y-126253371D01*
X148624686Y-126253371D02*
X148577067Y-126062895D01*
X148577067Y-126062895D02*
X148529448Y-125967657D01*
X148529448Y-125967657D02*
X148481829Y-125920038D01*
X148481829Y-125920038D02*
X148386591Y-125872419D01*
D11*
%TO.C,REF\u002A\u002A*%
X147855406Y-123274949D02*
X147881127Y-123290647D01*
X147907778Y-123312227D01*
X147907778Y-123959684D01*
X147881127Y-123981264D01*
X147849767Y-123998739D01*
X147813966Y-123999575D01*
X147782528Y-123979082D01*
X147778652Y-123974416D01*
X147773186Y-123964949D01*
X147768979Y-123951267D01*
X147765867Y-123930748D01*
X147763687Y-123900768D01*
X147762276Y-123858704D01*
X147761471Y-123801932D01*
X147761107Y-123727830D01*
X147761022Y-123633773D01*
X147761022Y-123312227D01*
X147787673Y-123290647D01*
X147811386Y-123275877D01*
X147834400Y-123269067D01*
X147855406Y-123274949D01*
G36*
X147855406Y-123274949D02*
G01*
X147881127Y-123290647D01*
X147907778Y-123312227D01*
X147907778Y-123959684D01*
X147881127Y-123981264D01*
X147849767Y-123998739D01*
X147813966Y-123999575D01*
X147782528Y-123979082D01*
X147778652Y-123974416D01*
X147773186Y-123964949D01*
X147768979Y-123951267D01*
X147765867Y-123930748D01*
X147763687Y-123900768D01*
X147762276Y-123858704D01*
X147761471Y-123801932D01*
X147761107Y-123727830D01*
X147761022Y-123633773D01*
X147761022Y-123312227D01*
X147787673Y-123290647D01*
X147811386Y-123275877D01*
X147834400Y-123269067D01*
X147855406Y-123274949D01*
G37*
X154986137Y-123273463D02*
X155020291Y-123296776D01*
X155048000Y-123324485D01*
X155048000Y-123637537D01*
X155047959Y-123721567D01*
X155047701Y-123795789D01*
X155047030Y-123852541D01*
X155045752Y-123894512D01*
X155043673Y-123924389D01*
X155040599Y-123944861D01*
X155036334Y-123958614D01*
X155030684Y-123968337D01*
X155023455Y-123976717D01*
X154991991Y-123998181D01*
X154956826Y-123999947D01*
X154923822Y-123980267D01*
X154918516Y-123974398D01*
X154913066Y-123965314D01*
X154908900Y-123951973D01*
X154905846Y-123931757D01*
X154903732Y-123902049D01*
X154902386Y-123860232D01*
X154901638Y-123803689D01*
X154901314Y-123729802D01*
X154901245Y-123635956D01*
X154901284Y-123560294D01*
X154901539Y-123482385D01*
X154902183Y-123422375D01*
X154903387Y-123377648D01*
X154905324Y-123345585D01*
X154908164Y-123323571D01*
X154912079Y-123308987D01*
X154917242Y-123299218D01*
X154923822Y-123291645D01*
X154953006Y-123272623D01*
X154986137Y-123273463D01*
G36*
X154986137Y-123273463D02*
G01*
X155020291Y-123296776D01*
X155048000Y-123324485D01*
X155048000Y-123637537D01*
X155047959Y-123721567D01*
X155047701Y-123795789D01*
X155047030Y-123852541D01*
X155045752Y-123894512D01*
X155043673Y-123924389D01*
X155040599Y-123944861D01*
X155036334Y-123958614D01*
X155030684Y-123968337D01*
X155023455Y-123976717D01*
X154991991Y-123998181D01*
X154956826Y-123999947D01*
X154923822Y-123980267D01*
X154918516Y-123974398D01*
X154913066Y-123965314D01*
X154908900Y-123951973D01*
X154905846Y-123931757D01*
X154903732Y-123902049D01*
X154902386Y-123860232D01*
X154901638Y-123803689D01*
X154901314Y-123729802D01*
X154901245Y-123635956D01*
X154901284Y-123560294D01*
X154901539Y-123482385D01*
X154902183Y-123422375D01*
X154903387Y-123377648D01*
X154905324Y-123345585D01*
X154908164Y-123323571D01*
X154912079Y-123308987D01*
X154917242Y-123299218D01*
X154923822Y-123291645D01*
X154953006Y-123272623D01*
X154986137Y-123273463D01*
G37*
X154454562Y-118032850D02*
X154537313Y-118060053D01*
X154612406Y-118105484D01*
X154684298Y-118171302D01*
X154722846Y-118215567D01*
X154762256Y-118273961D01*
X154787446Y-118334586D01*
X154800861Y-118403865D01*
X154804948Y-118488222D01*
X154804669Y-118534307D01*
X154802460Y-118575450D01*
X154796894Y-118607582D01*
X154786586Y-118638122D01*
X154770148Y-118674489D01*
X154756200Y-118701728D01*
X154697665Y-118787429D01*
X154625619Y-118856617D01*
X154541947Y-118907741D01*
X154448531Y-118939250D01*
X154415434Y-118946225D01*
X154374960Y-118953094D01*
X154341999Y-118954919D01*
X154307698Y-118951947D01*
X154263200Y-118944426D01*
X154211934Y-118932002D01*
X154121434Y-118894112D01*
X154042345Y-118839836D01*
X153976528Y-118771770D01*
X153925840Y-118692511D01*
X153892140Y-118604654D01*
X153877286Y-118510795D01*
X153883136Y-118413530D01*
X153909399Y-118317220D01*
X153954418Y-118228494D01*
X154015373Y-118153419D01*
X154090184Y-118093641D01*
X154176768Y-118050809D01*
X154273043Y-118026571D01*
X154376928Y-118022576D01*
X154454562Y-118032850D01*
G36*
X154454562Y-118032850D02*
G01*
X154537313Y-118060053D01*
X154612406Y-118105484D01*
X154684298Y-118171302D01*
X154722846Y-118215567D01*
X154762256Y-118273961D01*
X154787446Y-118334586D01*
X154800861Y-118403865D01*
X154804948Y-118488222D01*
X154804669Y-118534307D01*
X154802460Y-118575450D01*
X154796894Y-118607582D01*
X154786586Y-118638122D01*
X154770148Y-118674489D01*
X154756200Y-118701728D01*
X154697665Y-118787429D01*
X154625619Y-118856617D01*
X154541947Y-118907741D01*
X154448531Y-118939250D01*
X154415434Y-118946225D01*
X154374960Y-118953094D01*
X154341999Y-118954919D01*
X154307698Y-118951947D01*
X154263200Y-118944426D01*
X154211934Y-118932002D01*
X154121434Y-118894112D01*
X154042345Y-118839836D01*
X153976528Y-118771770D01*
X153925840Y-118692511D01*
X153892140Y-118604654D01*
X153877286Y-118510795D01*
X153883136Y-118413530D01*
X153909399Y-118317220D01*
X153954418Y-118228494D01*
X154015373Y-118153419D01*
X154090184Y-118093641D01*
X154176768Y-118050809D01*
X154273043Y-118026571D01*
X154376928Y-118022576D01*
X154454562Y-118032850D01*
G37*
X147155767Y-123269068D02*
X147249890Y-123269158D01*
X147324405Y-123269498D01*
X147381811Y-123270239D01*
X147424611Y-123271535D01*
X147455304Y-123273537D01*
X147476391Y-123276396D01*
X147490373Y-123280266D01*
X147499750Y-123285298D01*
X147507022Y-123291645D01*
X147525828Y-123324362D01*
X147527275Y-123361939D01*
X147510917Y-123395178D01*
X147509557Y-123396631D01*
X147498354Y-123404992D01*
X147481252Y-123410547D01*
X147454082Y-123413840D01*
X147412678Y-123415418D01*
X147352873Y-123415822D01*
X147213511Y-123415822D01*
X147213511Y-123679589D01*
X147213436Y-123755417D01*
X147213028Y-123822083D01*
X147212046Y-123871867D01*
X147210250Y-123907784D01*
X147207399Y-123932850D01*
X147203253Y-123950081D01*
X147197571Y-123962492D01*
X147190114Y-123973100D01*
X147187824Y-123975906D01*
X147156646Y-123998548D01*
X147122266Y-124000112D01*
X147089334Y-123980267D01*
X147082355Y-123972191D01*
X147076883Y-123961593D01*
X147072863Y-123945749D01*
X147070072Y-123921773D01*
X147068288Y-123886774D01*
X147067289Y-123837864D01*
X147066852Y-123772154D01*
X147066756Y-123686756D01*
X147066756Y-123415822D01*
X146920820Y-123415822D01*
X146909720Y-123415821D01*
X146853202Y-123415596D01*
X146814358Y-123414457D01*
X146788965Y-123411657D01*
X146772804Y-123406450D01*
X146761652Y-123398089D01*
X146751289Y-123385826D01*
X146735441Y-123355138D01*
X146738543Y-123321358D01*
X146764187Y-123288822D01*
X146769129Y-123285105D01*
X146779338Y-123280269D01*
X146794764Y-123276506D01*
X146817886Y-123273683D01*
X146851183Y-123271670D01*
X146897137Y-123270333D01*
X146958228Y-123269542D01*
X147036935Y-123269163D01*
X147135740Y-123269067D01*
X147155767Y-123269068D01*
G36*
X147155767Y-123269068D02*
G01*
X147249890Y-123269158D01*
X147324405Y-123269498D01*
X147381811Y-123270239D01*
X147424611Y-123271535D01*
X147455304Y-123273537D01*
X147476391Y-123276396D01*
X147490373Y-123280266D01*
X147499750Y-123285298D01*
X147507022Y-123291645D01*
X147525828Y-123324362D01*
X147527275Y-123361939D01*
X147510917Y-123395178D01*
X147509557Y-123396631D01*
X147498354Y-123404992D01*
X147481252Y-123410547D01*
X147454082Y-123413840D01*
X147412678Y-123415418D01*
X147352873Y-123415822D01*
X147213511Y-123415822D01*
X147213511Y-123679589D01*
X147213436Y-123755417D01*
X147213028Y-123822083D01*
X147212046Y-123871867D01*
X147210250Y-123907784D01*
X147207399Y-123932850D01*
X147203253Y-123950081D01*
X147197571Y-123962492D01*
X147190114Y-123973100D01*
X147187824Y-123975906D01*
X147156646Y-123998548D01*
X147122266Y-124000112D01*
X147089334Y-123980267D01*
X147082355Y-123972191D01*
X147076883Y-123961593D01*
X147072863Y-123945749D01*
X147070072Y-123921773D01*
X147068288Y-123886774D01*
X147067289Y-123837864D01*
X147066852Y-123772154D01*
X147066756Y-123686756D01*
X147066756Y-123415822D01*
X146920820Y-123415822D01*
X146909720Y-123415821D01*
X146853202Y-123415596D01*
X146814358Y-123414457D01*
X146788965Y-123411657D01*
X146772804Y-123406450D01*
X146761652Y-123398089D01*
X146751289Y-123385826D01*
X146735441Y-123355138D01*
X146738543Y-123321358D01*
X146764187Y-123288822D01*
X146769129Y-123285105D01*
X146779338Y-123280269D01*
X146794764Y-123276506D01*
X146817886Y-123273683D01*
X146851183Y-123271670D01*
X146897137Y-123270333D01*
X146958228Y-123269542D01*
X147036935Y-123269163D01*
X147135740Y-123269067D01*
X147155767Y-123269068D01*
G37*
X146479734Y-123291645D02*
X146485366Y-123297835D01*
X146490456Y-123306041D01*
X146494543Y-123317817D01*
X146497721Y-123335276D01*
X146500087Y-123360530D01*
X146501738Y-123395690D01*
X146502769Y-123442869D01*
X146503277Y-123504177D01*
X146503359Y-123581727D01*
X146503109Y-123677631D01*
X146502625Y-123794000D01*
X146502557Y-123808175D01*
X146501971Y-123869937D01*
X146500648Y-123913620D01*
X146498103Y-123943001D01*
X146493848Y-123961855D01*
X146487396Y-123973959D01*
X146478262Y-123983089D01*
X146444804Y-124000506D01*
X146409856Y-123997604D01*
X146378953Y-123973100D01*
X146369944Y-123959897D01*
X146362492Y-123941361D01*
X146358124Y-123915333D01*
X146356069Y-123876787D01*
X146355556Y-123820700D01*
X146355556Y-123698045D01*
X145858845Y-123698045D01*
X145858845Y-123832871D01*
X145858772Y-123868662D01*
X145858009Y-123914992D01*
X145855833Y-123945526D01*
X145851536Y-123964557D01*
X145844412Y-123976374D01*
X145833755Y-123985271D01*
X145801504Y-124000341D01*
X145766217Y-123997673D01*
X145735486Y-123973100D01*
X145730831Y-123966845D01*
X145724895Y-123956321D01*
X145720364Y-123942391D01*
X145717048Y-123922317D01*
X145714759Y-123893360D01*
X145713308Y-123852780D01*
X145712505Y-123797840D01*
X145712162Y-123725799D01*
X145712089Y-123633920D01*
X145712089Y-123324485D01*
X145739798Y-123296776D01*
X145771177Y-123274533D01*
X145804406Y-123271844D01*
X145836267Y-123291645D01*
X145844553Y-123301415D01*
X145851965Y-123317307D01*
X145856302Y-123341275D01*
X145858338Y-123378148D01*
X145858845Y-123432756D01*
X145858845Y-123551289D01*
X146355556Y-123551289D01*
X146355556Y-123435776D01*
X146355994Y-123384078D01*
X146357958Y-123349554D01*
X146362474Y-123326978D01*
X146370567Y-123311126D01*
X146383265Y-123296776D01*
X146414643Y-123274533D01*
X146447872Y-123271844D01*
X146479734Y-123291645D01*
G36*
X146479734Y-123291645D02*
G01*
X146485366Y-123297835D01*
X146490456Y-123306041D01*
X146494543Y-123317817D01*
X146497721Y-123335276D01*
X146500087Y-123360530D01*
X146501738Y-123395690D01*
X146502769Y-123442869D01*
X146503277Y-123504177D01*
X146503359Y-123581727D01*
X146503109Y-123677631D01*
X146502625Y-123794000D01*
X146502557Y-123808175D01*
X146501971Y-123869937D01*
X146500648Y-123913620D01*
X146498103Y-123943001D01*
X146493848Y-123961855D01*
X146487396Y-123973959D01*
X146478262Y-123983089D01*
X146444804Y-124000506D01*
X146409856Y-123997604D01*
X146378953Y-123973100D01*
X146369944Y-123959897D01*
X146362492Y-123941361D01*
X146358124Y-123915333D01*
X146356069Y-123876787D01*
X146355556Y-123820700D01*
X146355556Y-123698045D01*
X145858845Y-123698045D01*
X145858845Y-123832871D01*
X145858772Y-123868662D01*
X145858009Y-123914992D01*
X145855833Y-123945526D01*
X145851536Y-123964557D01*
X145844412Y-123976374D01*
X145833755Y-123985271D01*
X145801504Y-124000341D01*
X145766217Y-123997673D01*
X145735486Y-123973100D01*
X145730831Y-123966845D01*
X145724895Y-123956321D01*
X145720364Y-123942391D01*
X145717048Y-123922317D01*
X145714759Y-123893360D01*
X145713308Y-123852780D01*
X145712505Y-123797840D01*
X145712162Y-123725799D01*
X145712089Y-123633920D01*
X145712089Y-123324485D01*
X145739798Y-123296776D01*
X145771177Y-123274533D01*
X145804406Y-123271844D01*
X145836267Y-123291645D01*
X145844553Y-123301415D01*
X145851965Y-123317307D01*
X145856302Y-123341275D01*
X145858338Y-123378148D01*
X145858845Y-123432756D01*
X145858845Y-123551289D01*
X146355556Y-123551289D01*
X146355556Y-123435776D01*
X146355994Y-123384078D01*
X146357958Y-123349554D01*
X146362474Y-123326978D01*
X146370567Y-123311126D01*
X146383265Y-123296776D01*
X146414643Y-123274533D01*
X146447872Y-123271844D01*
X146479734Y-123291645D01*
G37*
X151185133Y-123880396D02*
X151183163Y-123913175D01*
X151180235Y-123936095D01*
X151176158Y-123951897D01*
X151170743Y-123963319D01*
X151163803Y-123973100D01*
X151140406Y-124002845D01*
X150974714Y-124002251D01*
X150939918Y-124001953D01*
X150841435Y-123998522D01*
X150760473Y-123990839D01*
X150693379Y-123978282D01*
X150636496Y-123960227D01*
X150586169Y-123936052D01*
X150582810Y-123934135D01*
X150524998Y-123897417D01*
X150482644Y-123860451D01*
X150449828Y-123816966D01*
X150420628Y-123760689D01*
X150416346Y-123751073D01*
X150393769Y-123687887D01*
X150388034Y-123642333D01*
X150537279Y-123642333D01*
X150542892Y-123667061D01*
X150548618Y-123682939D01*
X150581548Y-123742847D01*
X150628886Y-123788600D01*
X150692652Y-123821736D01*
X150774861Y-123843790D01*
X150777655Y-123844292D01*
X150823940Y-123850255D01*
X150880336Y-123854483D01*
X150935274Y-123856089D01*
X151029156Y-123856089D01*
X151029156Y-123415822D01*
X150941667Y-123416270D01*
X150874747Y-123418746D01*
X150782349Y-123429998D01*
X150703034Y-123449537D01*
X150641060Y-123476511D01*
X150610120Y-123497240D01*
X150582000Y-123527006D01*
X150558660Y-123569434D01*
X150551533Y-123585400D01*
X150539709Y-123617902D01*
X150537279Y-123642333D01*
X150388034Y-123642333D01*
X150386797Y-123632509D01*
X150395399Y-123577483D01*
X150419541Y-123515351D01*
X150420337Y-123513658D01*
X150460788Y-123444236D01*
X150511473Y-123387638D01*
X150574198Y-123343070D01*
X150650774Y-123309741D01*
X150743009Y-123286861D01*
X150852712Y-123273636D01*
X150981691Y-123269275D01*
X150985263Y-123269270D01*
X151045283Y-123269410D01*
X151087214Y-123270446D01*
X151115328Y-123273040D01*
X151133897Y-123277853D01*
X151147194Y-123285544D01*
X151159491Y-123296776D01*
X151187200Y-123324485D01*
X151187200Y-123633920D01*
X151187175Y-123695526D01*
X151186950Y-123774311D01*
X151186332Y-123835021D01*
X151185775Y-123856089D01*
X151185133Y-123880396D01*
G36*
X151185133Y-123880396D02*
G01*
X151183163Y-123913175D01*
X151180235Y-123936095D01*
X151176158Y-123951897D01*
X151170743Y-123963319D01*
X151163803Y-123973100D01*
X151140406Y-124002845D01*
X150974714Y-124002251D01*
X150939918Y-124001953D01*
X150841435Y-123998522D01*
X150760473Y-123990839D01*
X150693379Y-123978282D01*
X150636496Y-123960227D01*
X150586169Y-123936052D01*
X150582810Y-123934135D01*
X150524998Y-123897417D01*
X150482644Y-123860451D01*
X150449828Y-123816966D01*
X150420628Y-123760689D01*
X150416346Y-123751073D01*
X150393769Y-123687887D01*
X150388034Y-123642333D01*
X150537279Y-123642333D01*
X150542892Y-123667061D01*
X150548618Y-123682939D01*
X150581548Y-123742847D01*
X150628886Y-123788600D01*
X150692652Y-123821736D01*
X150774861Y-123843790D01*
X150777655Y-123844292D01*
X150823940Y-123850255D01*
X150880336Y-123854483D01*
X150935274Y-123856089D01*
X151029156Y-123856089D01*
X151029156Y-123415822D01*
X150941667Y-123416270D01*
X150874747Y-123418746D01*
X150782349Y-123429998D01*
X150703034Y-123449537D01*
X150641060Y-123476511D01*
X150610120Y-123497240D01*
X150582000Y-123527006D01*
X150558660Y-123569434D01*
X150551533Y-123585400D01*
X150539709Y-123617902D01*
X150537279Y-123642333D01*
X150388034Y-123642333D01*
X150386797Y-123632509D01*
X150395399Y-123577483D01*
X150419541Y-123515351D01*
X150420337Y-123513658D01*
X150460788Y-123444236D01*
X150511473Y-123387638D01*
X150574198Y-123343070D01*
X150650774Y-123309741D01*
X150743009Y-123286861D01*
X150852712Y-123273636D01*
X150981691Y-123269275D01*
X150985263Y-123269270D01*
X151045283Y-123269410D01*
X151087214Y-123270446D01*
X151115328Y-123273040D01*
X151133897Y-123277853D01*
X151147194Y-123285544D01*
X151159491Y-123296776D01*
X151187200Y-123324485D01*
X151187200Y-123633920D01*
X151187175Y-123695526D01*
X151186950Y-123774311D01*
X151186332Y-123835021D01*
X151185775Y-123856089D01*
X151185133Y-123880396D01*
G37*
X158276817Y-123454427D02*
X158276870Y-123535041D01*
X158276622Y-123635956D01*
X158276583Y-123711617D01*
X158276328Y-123789526D01*
X158275684Y-123849536D01*
X158274480Y-123894264D01*
X158272543Y-123926326D01*
X158269703Y-123948340D01*
X158265788Y-123962924D01*
X158260626Y-123972694D01*
X158254045Y-123980267D01*
X158247077Y-123986501D01*
X158234079Y-123993801D01*
X158214931Y-123998554D01*
X158185528Y-124001292D01*
X158141762Y-124002545D01*
X158079528Y-124002845D01*
X158030582Y-124002469D01*
X157923722Y-123998041D01*
X157834494Y-123987953D01*
X157759696Y-123971365D01*
X157696125Y-123947435D01*
X157640579Y-123915321D01*
X157589854Y-123874182D01*
X157583866Y-123868330D01*
X157546999Y-123819821D01*
X157515899Y-123759013D01*
X157494417Y-123694769D01*
X157489136Y-123656026D01*
X157636353Y-123656026D01*
X157654635Y-123706961D01*
X157684305Y-123752878D01*
X157731002Y-123795287D01*
X157792392Y-123825090D01*
X157871538Y-123844226D01*
X157873028Y-123844464D01*
X157921999Y-123850256D01*
X157980693Y-123854396D01*
X158036734Y-123856004D01*
X158129867Y-123856089D01*
X158129867Y-123415822D01*
X158053667Y-123415808D01*
X158050639Y-123415817D01*
X157999519Y-123417782D01*
X157939416Y-123422507D01*
X157882708Y-123429035D01*
X157832750Y-123438331D01*
X157757998Y-123464600D01*
X157700489Y-123503899D01*
X157658988Y-123556933D01*
X157637771Y-123608200D01*
X157636353Y-123656026D01*
X157489136Y-123656026D01*
X157486400Y-123635956D01*
X157487679Y-123614739D01*
X157499991Y-123557323D01*
X157522520Y-123497413D01*
X157551750Y-123443363D01*
X157584167Y-123403532D01*
X157603708Y-123386510D01*
X157658420Y-123347322D01*
X157718723Y-123317193D01*
X157787919Y-123295232D01*
X157869311Y-123280550D01*
X157966200Y-123272259D01*
X158081889Y-123269467D01*
X158121371Y-123269066D01*
X158167082Y-123268653D01*
X158202883Y-123270457D01*
X158229974Y-123276739D01*
X158249556Y-123289759D01*
X158262830Y-123311778D01*
X158270998Y-123345055D01*
X158275260Y-123391851D01*
X158275857Y-123415822D01*
X158276817Y-123454427D01*
G36*
X158276817Y-123454427D02*
G01*
X158276870Y-123535041D01*
X158276622Y-123635956D01*
X158276583Y-123711617D01*
X158276328Y-123789526D01*
X158275684Y-123849536D01*
X158274480Y-123894264D01*
X158272543Y-123926326D01*
X158269703Y-123948340D01*
X158265788Y-123962924D01*
X158260626Y-123972694D01*
X158254045Y-123980267D01*
X158247077Y-123986501D01*
X158234079Y-123993801D01*
X158214931Y-123998554D01*
X158185528Y-124001292D01*
X158141762Y-124002545D01*
X158079528Y-124002845D01*
X158030582Y-124002469D01*
X157923722Y-123998041D01*
X157834494Y-123987953D01*
X157759696Y-123971365D01*
X157696125Y-123947435D01*
X157640579Y-123915321D01*
X157589854Y-123874182D01*
X157583866Y-123868330D01*
X157546999Y-123819821D01*
X157515899Y-123759013D01*
X157494417Y-123694769D01*
X157489136Y-123656026D01*
X157636353Y-123656026D01*
X157654635Y-123706961D01*
X157684305Y-123752878D01*
X157731002Y-123795287D01*
X157792392Y-123825090D01*
X157871538Y-123844226D01*
X157873028Y-123844464D01*
X157921999Y-123850256D01*
X157980693Y-123854396D01*
X158036734Y-123856004D01*
X158129867Y-123856089D01*
X158129867Y-123415822D01*
X158053667Y-123415808D01*
X158050639Y-123415817D01*
X157999519Y-123417782D01*
X157939416Y-123422507D01*
X157882708Y-123429035D01*
X157832750Y-123438331D01*
X157757998Y-123464600D01*
X157700489Y-123503899D01*
X157658988Y-123556933D01*
X157637771Y-123608200D01*
X157636353Y-123656026D01*
X157489136Y-123656026D01*
X157486400Y-123635956D01*
X157487679Y-123614739D01*
X157499991Y-123557323D01*
X157522520Y-123497413D01*
X157551750Y-123443363D01*
X157584167Y-123403532D01*
X157603708Y-123386510D01*
X157658420Y-123347322D01*
X157718723Y-123317193D01*
X157787919Y-123295232D01*
X157869311Y-123280550D01*
X157966200Y-123272259D01*
X158081889Y-123269467D01*
X158121371Y-123269066D01*
X158167082Y-123268653D01*
X158202883Y-123270457D01*
X158229974Y-123276739D01*
X158249556Y-123289759D01*
X158262830Y-123311778D01*
X158270998Y-123345055D01*
X158275260Y-123391851D01*
X158275857Y-123415822D01*
X158276817Y-123454427D01*
G37*
X153331893Y-123267892D02*
X153343301Y-123274029D01*
X153353850Y-123284691D01*
X153365136Y-123298811D01*
X153369589Y-123304772D01*
X153375588Y-123315268D01*
X153380167Y-123329093D01*
X153383519Y-123348998D01*
X153385833Y-123377732D01*
X153387301Y-123418045D01*
X153388113Y-123472687D01*
X153388460Y-123544407D01*
X153388534Y-123635956D01*
X153388511Y-123694486D01*
X153388292Y-123773573D01*
X153387683Y-123834516D01*
X153386492Y-123880062D01*
X153384529Y-123912963D01*
X153381603Y-123935968D01*
X153377523Y-123951826D01*
X153372097Y-123963286D01*
X153365136Y-123973100D01*
X153334708Y-123997493D01*
X153299765Y-124000372D01*
X153262784Y-123981282D01*
X153258600Y-123977807D01*
X153250424Y-123969279D01*
X153244364Y-123957728D01*
X153239981Y-123939896D01*
X153236839Y-123912524D01*
X153234502Y-123872354D01*
X153232531Y-123816128D01*
X153230489Y-123740589D01*
X153224845Y-123521458D01*
X152959556Y-123762099D01*
X152885722Y-123828875D01*
X152820542Y-123886991D01*
X152768348Y-123931949D01*
X152727273Y-123964871D01*
X152695455Y-123986879D01*
X152671026Y-123999094D01*
X152652124Y-124002639D01*
X152636883Y-123998636D01*
X152623439Y-123988207D01*
X152609927Y-123972474D01*
X152603682Y-123963991D01*
X152598050Y-123953413D01*
X152593839Y-123939255D01*
X152590887Y-123918803D01*
X152589032Y-123889342D01*
X152588113Y-123848161D01*
X152587968Y-123792544D01*
X152588435Y-123719779D01*
X152589352Y-123627151D01*
X152592667Y-123312199D01*
X152619318Y-123290633D01*
X152645383Y-123274441D01*
X152678241Y-123271670D01*
X152712772Y-123290623D01*
X152717084Y-123294208D01*
X152725216Y-123302737D01*
X152731245Y-123314329D01*
X152735606Y-123332235D01*
X152738734Y-123359706D01*
X152741063Y-123399994D01*
X152743029Y-123456351D01*
X152745067Y-123532029D01*
X152750711Y-123751878D01*
X152931334Y-123588084D01*
X153018072Y-123509451D01*
X153093843Y-123441058D01*
X153155980Y-123385708D01*
X153206078Y-123342338D01*
X153245735Y-123309881D01*
X153276548Y-123287273D01*
X153300114Y-123273448D01*
X153318030Y-123267343D01*
X153331893Y-123267892D01*
G36*
X153331893Y-123267892D02*
G01*
X153343301Y-123274029D01*
X153353850Y-123284691D01*
X153365136Y-123298811D01*
X153369589Y-123304772D01*
X153375588Y-123315268D01*
X153380167Y-123329093D01*
X153383519Y-123348998D01*
X153385833Y-123377732D01*
X153387301Y-123418045D01*
X153388113Y-123472687D01*
X153388460Y-123544407D01*
X153388534Y-123635956D01*
X153388511Y-123694486D01*
X153388292Y-123773573D01*
X153387683Y-123834516D01*
X153386492Y-123880062D01*
X153384529Y-123912963D01*
X153381603Y-123935968D01*
X153377523Y-123951826D01*
X153372097Y-123963286D01*
X153365136Y-123973100D01*
X153334708Y-123997493D01*
X153299765Y-124000372D01*
X153262784Y-123981282D01*
X153258600Y-123977807D01*
X153250424Y-123969279D01*
X153244364Y-123957728D01*
X153239981Y-123939896D01*
X153236839Y-123912524D01*
X153234502Y-123872354D01*
X153232531Y-123816128D01*
X153230489Y-123740589D01*
X153224845Y-123521458D01*
X152959556Y-123762099D01*
X152885722Y-123828875D01*
X152820542Y-123886991D01*
X152768348Y-123931949D01*
X152727273Y-123964871D01*
X152695455Y-123986879D01*
X152671026Y-123999094D01*
X152652124Y-124002639D01*
X152636883Y-123998636D01*
X152623439Y-123988207D01*
X152609927Y-123972474D01*
X152603682Y-123963991D01*
X152598050Y-123953413D01*
X152593839Y-123939255D01*
X152590887Y-123918803D01*
X152589032Y-123889342D01*
X152588113Y-123848161D01*
X152587968Y-123792544D01*
X152588435Y-123719779D01*
X152589352Y-123627151D01*
X152592667Y-123312199D01*
X152619318Y-123290633D01*
X152645383Y-123274441D01*
X152678241Y-123271670D01*
X152712772Y-123290623D01*
X152717084Y-123294208D01*
X152725216Y-123302737D01*
X152731245Y-123314329D01*
X152735606Y-123332235D01*
X152738734Y-123359706D01*
X152741063Y-123399994D01*
X152743029Y-123456351D01*
X152745067Y-123532029D01*
X152750711Y-123751878D01*
X152931334Y-123588084D01*
X153018072Y-123509451D01*
X153093843Y-123441058D01*
X153155980Y-123385708D01*
X153206078Y-123342338D01*
X153245735Y-123309881D01*
X153276548Y-123287273D01*
X153300114Y-123273448D01*
X153318030Y-123267343D01*
X153331893Y-123267892D01*
G37*
X154129150Y-123274179D02*
X154235157Y-123290494D01*
X154328969Y-123318545D01*
X154407765Y-123357452D01*
X154468719Y-123406334D01*
X154494789Y-123439195D01*
X154524297Y-123488394D01*
X154549568Y-123542252D01*
X154567218Y-123593419D01*
X154573858Y-123634544D01*
X154572298Y-123654259D01*
X154559357Y-123705592D01*
X154536194Y-123762118D01*
X154506302Y-123816035D01*
X154473173Y-123859539D01*
X154462977Y-123869887D01*
X154395892Y-123921662D01*
X154315766Y-123961554D01*
X154229556Y-123985956D01*
X154174592Y-123994068D01*
X154081139Y-124000673D01*
X153991358Y-123998586D01*
X153908869Y-123988340D01*
X153837286Y-123970470D01*
X153780228Y-123945508D01*
X153741311Y-123913988D01*
X153739936Y-123912012D01*
X153732848Y-123886786D01*
X153728609Y-123839535D01*
X153727200Y-123770071D01*
X153728060Y-123707838D01*
X153732780Y-123660456D01*
X153744470Y-123628353D01*
X153766239Y-123608800D01*
X153801198Y-123599070D01*
X153852456Y-123596433D01*
X153923123Y-123598161D01*
X153971743Y-123601173D01*
X154021939Y-123609366D01*
X154054433Y-123623419D01*
X154071892Y-123644654D01*
X154076983Y-123674394D01*
X154076877Y-123678936D01*
X154068175Y-123713730D01*
X154044165Y-123737147D01*
X154002900Y-123750347D01*
X153942431Y-123754489D01*
X153873956Y-123754489D01*
X153873956Y-123792841D01*
X153874006Y-123801976D01*
X153876227Y-123819227D01*
X153885494Y-123829521D01*
X153906875Y-123836459D01*
X153945436Y-123843641D01*
X153950910Y-123844575D01*
X154047860Y-123854478D01*
X154137852Y-123851559D01*
X154218760Y-123836829D01*
X154288459Y-123811299D01*
X154344824Y-123775978D01*
X154385729Y-123731879D01*
X154409051Y-123680012D01*
X154412663Y-123621388D01*
X154407145Y-123592494D01*
X154380461Y-123536604D01*
X154334273Y-123490945D01*
X154269291Y-123456108D01*
X154186229Y-123432690D01*
X154161555Y-123428241D01*
X154072226Y-123417742D01*
X153992419Y-123418971D01*
X153914326Y-123431906D01*
X153879183Y-123438696D01*
X153833745Y-123439713D01*
X153802430Y-123427182D01*
X153782277Y-123400395D01*
X153775893Y-123372148D01*
X153785379Y-123340924D01*
X153794708Y-123327499D01*
X153828943Y-123303967D01*
X153881565Y-123286095D01*
X153950081Y-123274599D01*
X154032000Y-123270192D01*
X154129150Y-123274179D01*
G36*
X154129150Y-123274179D02*
G01*
X154235157Y-123290494D01*
X154328969Y-123318545D01*
X154407765Y-123357452D01*
X154468719Y-123406334D01*
X154494789Y-123439195D01*
X154524297Y-123488394D01*
X154549568Y-123542252D01*
X154567218Y-123593419D01*
X154573858Y-123634544D01*
X154572298Y-123654259D01*
X154559357Y-123705592D01*
X154536194Y-123762118D01*
X154506302Y-123816035D01*
X154473173Y-123859539D01*
X154462977Y-123869887D01*
X154395892Y-123921662D01*
X154315766Y-123961554D01*
X154229556Y-123985956D01*
X154174592Y-123994068D01*
X154081139Y-124000673D01*
X153991358Y-123998586D01*
X153908869Y-123988340D01*
X153837286Y-123970470D01*
X153780228Y-123945508D01*
X153741311Y-123913988D01*
X153739936Y-123912012D01*
X153732848Y-123886786D01*
X153728609Y-123839535D01*
X153727200Y-123770071D01*
X153728060Y-123707838D01*
X153732780Y-123660456D01*
X153744470Y-123628353D01*
X153766239Y-123608800D01*
X153801198Y-123599070D01*
X153852456Y-123596433D01*
X153923123Y-123598161D01*
X153971743Y-123601173D01*
X154021939Y-123609366D01*
X154054433Y-123623419D01*
X154071892Y-123644654D01*
X154076983Y-123674394D01*
X154076877Y-123678936D01*
X154068175Y-123713730D01*
X154044165Y-123737147D01*
X154002900Y-123750347D01*
X153942431Y-123754489D01*
X153873956Y-123754489D01*
X153873956Y-123792841D01*
X153874006Y-123801976D01*
X153876227Y-123819227D01*
X153885494Y-123829521D01*
X153906875Y-123836459D01*
X153945436Y-123843641D01*
X153950910Y-123844575D01*
X154047860Y-123854478D01*
X154137852Y-123851559D01*
X154218760Y-123836829D01*
X154288459Y-123811299D01*
X154344824Y-123775978D01*
X154385729Y-123731879D01*
X154409051Y-123680012D01*
X154412663Y-123621388D01*
X154407145Y-123592494D01*
X154380461Y-123536604D01*
X154334273Y-123490945D01*
X154269291Y-123456108D01*
X154186229Y-123432690D01*
X154161555Y-123428241D01*
X154072226Y-123417742D01*
X153992419Y-123418971D01*
X153914326Y-123431906D01*
X153879183Y-123438696D01*
X153833745Y-123439713D01*
X153802430Y-123427182D01*
X153782277Y-123400395D01*
X153775893Y-123372148D01*
X153785379Y-123340924D01*
X153794708Y-123327499D01*
X153828943Y-123303967D01*
X153881565Y-123286095D01*
X153950081Y-123274599D01*
X154032000Y-123270192D01*
X154129150Y-123274179D01*
G37*
X152179803Y-123298811D02*
X152184752Y-123305495D01*
X152190596Y-123316066D01*
X152195057Y-123330153D01*
X152198321Y-123350478D01*
X152200574Y-123379765D01*
X152202002Y-123420737D01*
X152202792Y-123476117D01*
X152203129Y-123548628D01*
X152203200Y-123640994D01*
X152203171Y-123706911D01*
X152202939Y-123785228D01*
X152202319Y-123845496D01*
X152201126Y-123890393D01*
X152199179Y-123922602D01*
X152196294Y-123944800D01*
X152192288Y-123959669D01*
X152186979Y-123969889D01*
X152180183Y-123978138D01*
X152175668Y-123982795D01*
X152167438Y-123989282D01*
X152156078Y-123994194D01*
X152138810Y-123997749D01*
X152112855Y-124000167D01*
X152075436Y-124001667D01*
X152023773Y-124002467D01*
X151955089Y-124002787D01*
X151866606Y-124002845D01*
X151846931Y-124002838D01*
X151759906Y-124002572D01*
X151692254Y-124001806D01*
X151641299Y-124000392D01*
X151604367Y-123998180D01*
X151578783Y-123995022D01*
X151561871Y-123990769D01*
X151550957Y-123985271D01*
X151540464Y-123975285D01*
X151527203Y-123944168D01*
X151528386Y-123908280D01*
X151544550Y-123876733D01*
X151546739Y-123874457D01*
X151555427Y-123868189D01*
X151568769Y-123863523D01*
X151589752Y-123860227D01*
X151621363Y-123858068D01*
X151666590Y-123856814D01*
X151728420Y-123856231D01*
X151809839Y-123856089D01*
X152056445Y-123856089D01*
X152056445Y-123698045D01*
X151894006Y-123698045D01*
X151858338Y-123697964D01*
X151802568Y-123697167D01*
X151763430Y-123695162D01*
X151736976Y-123691521D01*
X151719259Y-123685812D01*
X151706329Y-123677607D01*
X151702686Y-123674423D01*
X151684278Y-123643448D01*
X151683644Y-123607112D01*
X151701183Y-123573493D01*
X151701245Y-123573424D01*
X151710916Y-123564798D01*
X151724209Y-123558742D01*
X151744917Y-123554811D01*
X151776828Y-123552556D01*
X151823734Y-123551531D01*
X151889424Y-123551289D01*
X152057571Y-123551289D01*
X152054186Y-123486378D01*
X152050800Y-123421467D01*
X151808723Y-123418414D01*
X151783707Y-123418086D01*
X151702087Y-123416606D01*
X151639768Y-123414222D01*
X151594154Y-123410227D01*
X151562652Y-123403913D01*
X151542667Y-123394574D01*
X151531604Y-123381503D01*
X151526869Y-123363992D01*
X151525867Y-123341335D01*
X151525873Y-123338970D01*
X151527027Y-123318939D01*
X151531824Y-123303146D01*
X151542632Y-123291090D01*
X151561817Y-123282267D01*
X151591745Y-123276175D01*
X151634783Y-123272311D01*
X151693299Y-123270174D01*
X151769657Y-123269260D01*
X151866226Y-123269067D01*
X152156406Y-123269067D01*
X152179803Y-123298811D01*
G36*
X152179803Y-123298811D02*
G01*
X152184752Y-123305495D01*
X152190596Y-123316066D01*
X152195057Y-123330153D01*
X152198321Y-123350478D01*
X152200574Y-123379765D01*
X152202002Y-123420737D01*
X152202792Y-123476117D01*
X152203129Y-123548628D01*
X152203200Y-123640994D01*
X152203171Y-123706911D01*
X152202939Y-123785228D01*
X152202319Y-123845496D01*
X152201126Y-123890393D01*
X152199179Y-123922602D01*
X152196294Y-123944800D01*
X152192288Y-123959669D01*
X152186979Y-123969889D01*
X152180183Y-123978138D01*
X152175668Y-123982795D01*
X152167438Y-123989282D01*
X152156078Y-123994194D01*
X152138810Y-123997749D01*
X152112855Y-124000167D01*
X152075436Y-124001667D01*
X152023773Y-124002467D01*
X151955089Y-124002787D01*
X151866606Y-124002845D01*
X151846931Y-124002838D01*
X151759906Y-124002572D01*
X151692254Y-124001806D01*
X151641299Y-124000392D01*
X151604367Y-123998180D01*
X151578783Y-123995022D01*
X151561871Y-123990769D01*
X151550957Y-123985271D01*
X151540464Y-123975285D01*
X151527203Y-123944168D01*
X151528386Y-123908280D01*
X151544550Y-123876733D01*
X151546739Y-123874457D01*
X151555427Y-123868189D01*
X151568769Y-123863523D01*
X151589752Y-123860227D01*
X151621363Y-123858068D01*
X151666590Y-123856814D01*
X151728420Y-123856231D01*
X151809839Y-123856089D01*
X152056445Y-123856089D01*
X152056445Y-123698045D01*
X151894006Y-123698045D01*
X151858338Y-123697964D01*
X151802568Y-123697167D01*
X151763430Y-123695162D01*
X151736976Y-123691521D01*
X151719259Y-123685812D01*
X151706329Y-123677607D01*
X151702686Y-123674423D01*
X151684278Y-123643448D01*
X151683644Y-123607112D01*
X151701183Y-123573493D01*
X151701245Y-123573424D01*
X151710916Y-123564798D01*
X151724209Y-123558742D01*
X151744917Y-123554811D01*
X151776828Y-123552556D01*
X151823734Y-123551531D01*
X151889424Y-123551289D01*
X152057571Y-123551289D01*
X152054186Y-123486378D01*
X152050800Y-123421467D01*
X151808723Y-123418414D01*
X151783707Y-123418086D01*
X151702087Y-123416606D01*
X151639768Y-123414222D01*
X151594154Y-123410227D01*
X151562652Y-123403913D01*
X151542667Y-123394574D01*
X151531604Y-123381503D01*
X151526869Y-123363992D01*
X151525867Y-123341335D01*
X151525873Y-123338970D01*
X151527027Y-123318939D01*
X151531824Y-123303146D01*
X151542632Y-123291090D01*
X151561817Y-123282267D01*
X151591745Y-123276175D01*
X151634783Y-123272311D01*
X151693299Y-123270174D01*
X151769657Y-123269260D01*
X151866226Y-123269067D01*
X152156406Y-123269067D01*
X152179803Y-123298811D01*
G37*
X156856734Y-123269083D02*
X156933831Y-123269275D01*
X156992777Y-123269860D01*
X157036364Y-123271051D01*
X157067383Y-123273064D01*
X157088625Y-123276112D01*
X157102882Y-123280409D01*
X157112945Y-123286172D01*
X157121606Y-123293612D01*
X157123391Y-123295293D01*
X157130635Y-123302832D01*
X157136277Y-123311850D01*
X157140517Y-123324984D01*
X157143556Y-123344872D01*
X157145594Y-123374151D01*
X157146830Y-123415458D01*
X157147465Y-123471431D01*
X157147700Y-123544707D01*
X157147734Y-123637923D01*
X157147697Y-123710713D01*
X157147448Y-123788889D01*
X157146812Y-123849103D01*
X157145615Y-123893982D01*
X157143684Y-123926152D01*
X157140846Y-123948239D01*
X157136927Y-123962870D01*
X157131755Y-123972670D01*
X157125156Y-123980267D01*
X157121822Y-123983444D01*
X157113300Y-123989554D01*
X157101298Y-123994229D01*
X157083087Y-123997659D01*
X157055940Y-124000036D01*
X157017129Y-124001552D01*
X156963924Y-124002398D01*
X156893598Y-124002765D01*
X156803422Y-124002845D01*
X156761314Y-124002833D01*
X156680167Y-124002651D01*
X156617675Y-124002098D01*
X156571109Y-124000982D01*
X156537741Y-123999113D01*
X156514844Y-123996298D01*
X156499688Y-123992346D01*
X156489546Y-123987066D01*
X156481689Y-123980267D01*
X156466963Y-123958667D01*
X156459111Y-123929467D01*
X156464610Y-123905560D01*
X156481689Y-123878667D01*
X156486668Y-123874059D01*
X156496443Y-123867772D01*
X156510559Y-123863146D01*
X156532054Y-123859930D01*
X156563968Y-123857870D01*
X156609342Y-123856712D01*
X156671213Y-123856202D01*
X156752622Y-123856089D01*
X157000978Y-123856089D01*
X157000978Y-123698045D01*
X156839801Y-123698045D01*
X156803983Y-123697899D01*
X156738359Y-123696176D01*
X156691118Y-123691741D01*
X156659383Y-123683637D01*
X156640277Y-123670906D01*
X156630923Y-123652592D01*
X156628445Y-123627738D01*
X156629242Y-123607482D01*
X156634494Y-123585656D01*
X156647288Y-123570304D01*
X156670628Y-123560309D01*
X156707517Y-123554553D01*
X156760959Y-123551919D01*
X156833958Y-123551289D01*
X157002105Y-123551289D01*
X156998719Y-123486378D01*
X156995334Y-123421467D01*
X156747617Y-123418418D01*
X156685026Y-123417539D01*
X156616565Y-123416095D01*
X156565661Y-123414164D01*
X156529408Y-123411514D01*
X156504901Y-123407910D01*
X156489235Y-123403121D01*
X156479506Y-123396913D01*
X156473491Y-123390510D01*
X156460482Y-123358828D01*
X156464043Y-123323142D01*
X156483818Y-123292084D01*
X156487069Y-123289161D01*
X156496049Y-123282810D01*
X156508153Y-123277957D01*
X156526159Y-123274403D01*
X156552847Y-123271946D01*
X156590997Y-123270385D01*
X156643386Y-123269518D01*
X156712794Y-123269146D01*
X156802001Y-123269067D01*
X156856734Y-123269083D01*
G36*
X156856734Y-123269083D02*
G01*
X156933831Y-123269275D01*
X156992777Y-123269860D01*
X157036364Y-123271051D01*
X157067383Y-123273064D01*
X157088625Y-123276112D01*
X157102882Y-123280409D01*
X157112945Y-123286172D01*
X157121606Y-123293612D01*
X157123391Y-123295293D01*
X157130635Y-123302832D01*
X157136277Y-123311850D01*
X157140517Y-123324984D01*
X157143556Y-123344872D01*
X157145594Y-123374151D01*
X157146830Y-123415458D01*
X157147465Y-123471431D01*
X157147700Y-123544707D01*
X157147734Y-123637923D01*
X157147697Y-123710713D01*
X157147448Y-123788889D01*
X157146812Y-123849103D01*
X157145615Y-123893982D01*
X157143684Y-123926152D01*
X157140846Y-123948239D01*
X157136927Y-123962870D01*
X157131755Y-123972670D01*
X157125156Y-123980267D01*
X157121822Y-123983444D01*
X157113300Y-123989554D01*
X157101298Y-123994229D01*
X157083087Y-123997659D01*
X157055940Y-124000036D01*
X157017129Y-124001552D01*
X156963924Y-124002398D01*
X156893598Y-124002765D01*
X156803422Y-124002845D01*
X156761314Y-124002833D01*
X156680167Y-124002651D01*
X156617675Y-124002098D01*
X156571109Y-124000982D01*
X156537741Y-123999113D01*
X156514844Y-123996298D01*
X156499688Y-123992346D01*
X156489546Y-123987066D01*
X156481689Y-123980267D01*
X156466963Y-123958667D01*
X156459111Y-123929467D01*
X156464610Y-123905560D01*
X156481689Y-123878667D01*
X156486668Y-123874059D01*
X156496443Y-123867772D01*
X156510559Y-123863146D01*
X156532054Y-123859930D01*
X156563968Y-123857870D01*
X156609342Y-123856712D01*
X156671213Y-123856202D01*
X156752622Y-123856089D01*
X157000978Y-123856089D01*
X157000978Y-123698045D01*
X156839801Y-123698045D01*
X156803983Y-123697899D01*
X156738359Y-123696176D01*
X156691118Y-123691741D01*
X156659383Y-123683637D01*
X156640277Y-123670906D01*
X156630923Y-123652592D01*
X156628445Y-123627738D01*
X156629242Y-123607482D01*
X156634494Y-123585656D01*
X156647288Y-123570304D01*
X156670628Y-123560309D01*
X156707517Y-123554553D01*
X156760959Y-123551919D01*
X156833958Y-123551289D01*
X157002105Y-123551289D01*
X156998719Y-123486378D01*
X156995334Y-123421467D01*
X156747617Y-123418418D01*
X156685026Y-123417539D01*
X156616565Y-123416095D01*
X156565661Y-123414164D01*
X156529408Y-123411514D01*
X156504901Y-123407910D01*
X156489235Y-123403121D01*
X156479506Y-123396913D01*
X156473491Y-123390510D01*
X156460482Y-123358828D01*
X156464043Y-123323142D01*
X156483818Y-123292084D01*
X156487069Y-123289161D01*
X156496049Y-123282810D01*
X156508153Y-123277957D01*
X156526159Y-123274403D01*
X156552847Y-123271946D01*
X156590997Y-123270385D01*
X156643386Y-123269518D01*
X156712794Y-123269146D01*
X156802001Y-123269067D01*
X156856734Y-123269083D01*
G37*
X148289702Y-123278478D02*
X148307663Y-123296989D01*
X148328263Y-123328071D01*
X148353095Y-123373756D01*
X148383750Y-123436078D01*
X148421820Y-123517071D01*
X148436454Y-123548454D01*
X148466203Y-123611638D01*
X148492297Y-123666244D01*
X148513292Y-123709290D01*
X148527739Y-123737793D01*
X148534191Y-123748770D01*
X148535550Y-123748189D01*
X148545542Y-123734242D01*
X148562833Y-123704704D01*
X148585430Y-123663087D01*
X148611338Y-123612903D01*
X148627311Y-123581414D01*
X148656261Y-123526061D01*
X148678749Y-123487044D01*
X148696965Y-123461566D01*
X148713096Y-123446831D01*
X148729330Y-123440042D01*
X148747857Y-123438400D01*
X148758360Y-123438875D01*
X148774476Y-123443082D01*
X148789790Y-123453946D01*
X148806388Y-123474219D01*
X148826357Y-123506654D01*
X148851783Y-123554004D01*
X148884752Y-123619022D01*
X148894485Y-123638277D01*
X148918943Y-123684946D01*
X148939178Y-123721109D01*
X148953311Y-123743497D01*
X148959460Y-123748845D01*
X148960827Y-123745573D01*
X148970202Y-123724664D01*
X148987062Y-123687725D01*
X149009979Y-123637874D01*
X149037520Y-123578226D01*
X149068255Y-123511898D01*
X149094970Y-123454677D01*
X149124593Y-123392688D01*
X149147664Y-123346949D01*
X149165643Y-123314908D01*
X149179990Y-123294014D01*
X149192166Y-123281718D01*
X149203632Y-123275466D01*
X149213042Y-123272574D01*
X149238147Y-123272425D01*
X149265290Y-123287768D01*
X149266590Y-123288753D01*
X149288674Y-123311388D01*
X149299723Y-123333613D01*
X149299769Y-123334253D01*
X149295228Y-123351915D01*
X149282364Y-123386481D01*
X149262605Y-123434826D01*
X149237381Y-123493825D01*
X149208119Y-123560355D01*
X149176250Y-123631291D01*
X149143201Y-123703507D01*
X149110401Y-123773880D01*
X149079280Y-123839285D01*
X149051265Y-123896597D01*
X149027786Y-123942692D01*
X149010272Y-123974446D01*
X149000151Y-123988733D01*
X148965743Y-124002102D01*
X148924046Y-123995741D01*
X148918681Y-123991044D01*
X148902852Y-123968893D01*
X148880650Y-123932132D01*
X148854233Y-123884415D01*
X148825760Y-123829393D01*
X148745986Y-123670150D01*
X148672799Y-123816742D01*
X148663103Y-123836032D01*
X148636125Y-123888380D01*
X148612096Y-123933170D01*
X148593332Y-123966154D01*
X148582146Y-123983089D01*
X148581000Y-123984332D01*
X148552879Y-123999619D01*
X148517817Y-124001302D01*
X148486776Y-123988733D01*
X148484350Y-123985884D01*
X148472090Y-123965259D01*
X148452352Y-123927708D01*
X148426448Y-123875880D01*
X148395685Y-123812423D01*
X148361375Y-123739985D01*
X148324825Y-123661216D01*
X148304585Y-123617093D01*
X148267812Y-123536365D01*
X148239355Y-123472687D01*
X148218331Y-123423752D01*
X148203854Y-123387257D01*
X148195039Y-123360895D01*
X148191004Y-123342361D01*
X148190862Y-123329352D01*
X148193730Y-123319561D01*
X148208387Y-123298678D01*
X148234990Y-123278377D01*
X148235745Y-123278035D01*
X148255335Y-123271034D01*
X148272790Y-123270504D01*
X148289702Y-123278478D01*
G36*
X148289702Y-123278478D02*
G01*
X148307663Y-123296989D01*
X148328263Y-123328071D01*
X148353095Y-123373756D01*
X148383750Y-123436078D01*
X148421820Y-123517071D01*
X148436454Y-123548454D01*
X148466203Y-123611638D01*
X148492297Y-123666244D01*
X148513292Y-123709290D01*
X148527739Y-123737793D01*
X148534191Y-123748770D01*
X148535550Y-123748189D01*
X148545542Y-123734242D01*
X148562833Y-123704704D01*
X148585430Y-123663087D01*
X148611338Y-123612903D01*
X148627311Y-123581414D01*
X148656261Y-123526061D01*
X148678749Y-123487044D01*
X148696965Y-123461566D01*
X148713096Y-123446831D01*
X148729330Y-123440042D01*
X148747857Y-123438400D01*
X148758360Y-123438875D01*
X148774476Y-123443082D01*
X148789790Y-123453946D01*
X148806388Y-123474219D01*
X148826357Y-123506654D01*
X148851783Y-123554004D01*
X148884752Y-123619022D01*
X148894485Y-123638277D01*
X148918943Y-123684946D01*
X148939178Y-123721109D01*
X148953311Y-123743497D01*
X148959460Y-123748845D01*
X148960827Y-123745573D01*
X148970202Y-123724664D01*
X148987062Y-123687725D01*
X149009979Y-123637874D01*
X149037520Y-123578226D01*
X149068255Y-123511898D01*
X149094970Y-123454677D01*
X149124593Y-123392688D01*
X149147664Y-123346949D01*
X149165643Y-123314908D01*
X149179990Y-123294014D01*
X149192166Y-123281718D01*
X149203632Y-123275466D01*
X149213042Y-123272574D01*
X149238147Y-123272425D01*
X149265290Y-123287768D01*
X149266590Y-123288753D01*
X149288674Y-123311388D01*
X149299723Y-123333613D01*
X149299769Y-123334253D01*
X149295228Y-123351915D01*
X149282364Y-123386481D01*
X149262605Y-123434826D01*
X149237381Y-123493825D01*
X149208119Y-123560355D01*
X149176250Y-123631291D01*
X149143201Y-123703507D01*
X149110401Y-123773880D01*
X149079280Y-123839285D01*
X149051265Y-123896597D01*
X149027786Y-123942692D01*
X149010272Y-123974446D01*
X149000151Y-123988733D01*
X148965743Y-124002102D01*
X148924046Y-123995741D01*
X148918681Y-123991044D01*
X148902852Y-123968893D01*
X148880650Y-123932132D01*
X148854233Y-123884415D01*
X148825760Y-123829393D01*
X148745986Y-123670150D01*
X148672799Y-123816742D01*
X148663103Y-123836032D01*
X148636125Y-123888380D01*
X148612096Y-123933170D01*
X148593332Y-123966154D01*
X148582146Y-123983089D01*
X148581000Y-123984332D01*
X148552879Y-123999619D01*
X148517817Y-124001302D01*
X148486776Y-123988733D01*
X148484350Y-123985884D01*
X148472090Y-123965259D01*
X148452352Y-123927708D01*
X148426448Y-123875880D01*
X148395685Y-123812423D01*
X148361375Y-123739985D01*
X148324825Y-123661216D01*
X148304585Y-123617093D01*
X148267812Y-123536365D01*
X148239355Y-123472687D01*
X148218331Y-123423752D01*
X148203854Y-123387257D01*
X148195039Y-123360895D01*
X148191004Y-123342361D01*
X148190862Y-123329352D01*
X148193730Y-123319561D01*
X148208387Y-123298678D01*
X148234990Y-123278377D01*
X148235745Y-123278035D01*
X148255335Y-123271034D01*
X148272790Y-123270504D01*
X148289702Y-123278478D01*
G37*
X155840853Y-123269936D02*
X155907100Y-123275366D01*
X155962400Y-123284964D01*
X156013283Y-123299825D01*
X156084595Y-123332958D01*
X156135752Y-123375640D01*
X156166575Y-123427705D01*
X156176889Y-123488983D01*
X156175952Y-123520232D01*
X156170160Y-123545029D01*
X156155353Y-123566699D01*
X156127380Y-123594049D01*
X156119402Y-123601378D01*
X156095692Y-123622281D01*
X156073298Y-123639251D01*
X156049265Y-123653205D01*
X156020637Y-123665056D01*
X155984460Y-123675720D01*
X155937780Y-123686111D01*
X155877641Y-123697146D01*
X155801090Y-123709738D01*
X155705171Y-123724804D01*
X155686808Y-123727838D01*
X155624478Y-123741458D01*
X155579260Y-123757192D01*
X155552976Y-123774263D01*
X155547447Y-123791897D01*
X155550068Y-123796168D01*
X155568000Y-123811233D01*
X155596126Y-123827867D01*
X155608926Y-123833857D01*
X155630224Y-123841050D01*
X155656610Y-123845827D01*
X155692454Y-123848646D01*
X155742128Y-123849964D01*
X155810000Y-123850237D01*
X155827785Y-123850164D01*
X155895406Y-123849053D01*
X155960345Y-123846828D01*
X156015970Y-123843762D01*
X156055651Y-123840127D01*
X156091162Y-123836059D01*
X156120415Y-123835276D01*
X156139315Y-123839876D01*
X156154429Y-123850551D01*
X156158085Y-123854144D01*
X156174427Y-123885918D01*
X156173107Y-123921572D01*
X156154150Y-123952190D01*
X156133780Y-123963796D01*
X156097796Y-123976491D01*
X156055372Y-123986541D01*
X156051922Y-123987140D01*
X156009252Y-123992356D01*
X155951866Y-123996730D01*
X155886849Y-123999818D01*
X155821289Y-124001177D01*
X155805057Y-124001218D01*
X155706744Y-123998741D01*
X155626692Y-123990735D01*
X155561513Y-123976203D01*
X155507817Y-123954149D01*
X155462216Y-123923576D01*
X155421323Y-123883486D01*
X155401202Y-123857259D01*
X155389576Y-123827712D01*
X155386667Y-123787995D01*
X155386808Y-123776026D01*
X155390681Y-123743345D01*
X155403065Y-123716819D01*
X155428230Y-123685971D01*
X155449442Y-123663831D01*
X155475838Y-123641285D01*
X155505555Y-123622917D01*
X155541785Y-123607661D01*
X155587717Y-123594449D01*
X155646544Y-123582214D01*
X155721456Y-123569889D01*
X155815645Y-123556406D01*
X155860957Y-123549396D01*
X155928911Y-123534837D01*
X155978047Y-123518337D01*
X156007614Y-123500439D01*
X156016864Y-123481685D01*
X156005048Y-123462615D01*
X155971416Y-123443771D01*
X155968370Y-123442557D01*
X155922011Y-123430479D01*
X155859361Y-123422279D01*
X155785927Y-123418119D01*
X155707217Y-123418161D01*
X155628739Y-123422569D01*
X155556000Y-123431505D01*
X155552073Y-123432154D01*
X155503257Y-123439861D01*
X155471005Y-123443473D01*
X155450008Y-123442876D01*
X155434954Y-123437954D01*
X155420534Y-123428596D01*
X155419364Y-123427725D01*
X155394847Y-123397351D01*
X155390054Y-123361850D01*
X155405860Y-123327269D01*
X155410406Y-123322813D01*
X155440020Y-123307673D01*
X155487002Y-123294550D01*
X155547306Y-123283750D01*
X155616888Y-123275581D01*
X155691703Y-123270351D01*
X155767706Y-123268367D01*
X155840853Y-123269936D01*
G36*
X155840853Y-123269936D02*
G01*
X155907100Y-123275366D01*
X155962400Y-123284964D01*
X156013283Y-123299825D01*
X156084595Y-123332958D01*
X156135752Y-123375640D01*
X156166575Y-123427705D01*
X156176889Y-123488983D01*
X156175952Y-123520232D01*
X156170160Y-123545029D01*
X156155353Y-123566699D01*
X156127380Y-123594049D01*
X156119402Y-123601378D01*
X156095692Y-123622281D01*
X156073298Y-123639251D01*
X156049265Y-123653205D01*
X156020637Y-123665056D01*
X155984460Y-123675720D01*
X155937780Y-123686111D01*
X155877641Y-123697146D01*
X155801090Y-123709738D01*
X155705171Y-123724804D01*
X155686808Y-123727838D01*
X155624478Y-123741458D01*
X155579260Y-123757192D01*
X155552976Y-123774263D01*
X155547447Y-123791897D01*
X155550068Y-123796168D01*
X155568000Y-123811233D01*
X155596126Y-123827867D01*
X155608926Y-123833857D01*
X155630224Y-123841050D01*
X155656610Y-123845827D01*
X155692454Y-123848646D01*
X155742128Y-123849964D01*
X155810000Y-123850237D01*
X155827785Y-123850164D01*
X155895406Y-123849053D01*
X155960345Y-123846828D01*
X156015970Y-123843762D01*
X156055651Y-123840127D01*
X156091162Y-123836059D01*
X156120415Y-123835276D01*
X156139315Y-123839876D01*
X156154429Y-123850551D01*
X156158085Y-123854144D01*
X156174427Y-123885918D01*
X156173107Y-123921572D01*
X156154150Y-123952190D01*
X156133780Y-123963796D01*
X156097796Y-123976491D01*
X156055372Y-123986541D01*
X156051922Y-123987140D01*
X156009252Y-123992356D01*
X155951866Y-123996730D01*
X155886849Y-123999818D01*
X155821289Y-124001177D01*
X155805057Y-124001218D01*
X155706744Y-123998741D01*
X155626692Y-123990735D01*
X155561513Y-123976203D01*
X155507817Y-123954149D01*
X155462216Y-123923576D01*
X155421323Y-123883486D01*
X155401202Y-123857259D01*
X155389576Y-123827712D01*
X155386667Y-123787995D01*
X155386808Y-123776026D01*
X155390681Y-123743345D01*
X155403065Y-123716819D01*
X155428230Y-123685971D01*
X155449442Y-123663831D01*
X155475838Y-123641285D01*
X155505555Y-123622917D01*
X155541785Y-123607661D01*
X155587717Y-123594449D01*
X155646544Y-123582214D01*
X155721456Y-123569889D01*
X155815645Y-123556406D01*
X155860957Y-123549396D01*
X155928911Y-123534837D01*
X155978047Y-123518337D01*
X156007614Y-123500439D01*
X156016864Y-123481685D01*
X156005048Y-123462615D01*
X155971416Y-123443771D01*
X155968370Y-123442557D01*
X155922011Y-123430479D01*
X155859361Y-123422279D01*
X155785927Y-123418119D01*
X155707217Y-123418161D01*
X155628739Y-123422569D01*
X155556000Y-123431505D01*
X155552073Y-123432154D01*
X155503257Y-123439861D01*
X155471005Y-123443473D01*
X155450008Y-123442876D01*
X155434954Y-123437954D01*
X155420534Y-123428596D01*
X155419364Y-123427725D01*
X155394847Y-123397351D01*
X155390054Y-123361850D01*
X155405860Y-123327269D01*
X155410406Y-123322813D01*
X155440020Y-123307673D01*
X155487002Y-123294550D01*
X155547306Y-123283750D01*
X155616888Y-123275581D01*
X155691703Y-123270351D01*
X155767706Y-123268367D01*
X155840853Y-123269936D01*
G37*
X151988711Y-118962033D02*
X152084268Y-118979523D01*
X152248558Y-119024564D01*
X152402589Y-119087656D01*
X152548509Y-119169915D01*
X152688466Y-119272457D01*
X152824608Y-119396399D01*
X152868473Y-119441661D01*
X152980758Y-119573865D01*
X153073972Y-119711832D01*
X153150719Y-119859750D01*
X153213603Y-120021803D01*
X153217420Y-120033391D01*
X153267507Y-120219392D01*
X153300899Y-120415521D01*
X153317584Y-120617568D01*
X153317551Y-120821325D01*
X153300791Y-121022581D01*
X153267292Y-121217128D01*
X153217044Y-121400756D01*
X153173190Y-121518053D01*
X153095348Y-121680951D01*
X153001828Y-121834866D01*
X152894822Y-121976671D01*
X152776519Y-122103239D01*
X152649111Y-122211441D01*
X152571606Y-122264120D01*
X152444725Y-122333750D01*
X152307243Y-122392468D01*
X152165716Y-122437587D01*
X152026702Y-122466422D01*
X152012597Y-122468106D01*
X151969153Y-122471434D01*
X151911723Y-122474275D01*
X151846122Y-122476373D01*
X151778167Y-122477468D01*
X151651378Y-122475140D01*
X151503673Y-122462136D01*
X151365779Y-122437133D01*
X151232014Y-122399318D01*
X151208562Y-122390889D01*
X151160612Y-122371408D01*
X151104140Y-122346473D01*
X151042379Y-122317722D01*
X150978563Y-122286790D01*
X150915926Y-122255315D01*
X150857703Y-122224934D01*
X150807127Y-122197283D01*
X150767433Y-122173999D01*
X150741854Y-122156718D01*
X150733625Y-122147079D01*
X150735076Y-122143984D01*
X150746250Y-122124079D01*
X150767134Y-122088420D01*
X150796265Y-122039459D01*
X150832181Y-121979646D01*
X150873420Y-121911433D01*
X150918517Y-121837271D01*
X151099785Y-121540008D01*
X151146315Y-121584539D01*
X151237723Y-121662865D01*
X151351334Y-121737439D01*
X151469122Y-121791474D01*
X151589559Y-121824290D01*
X151711117Y-121835211D01*
X151752585Y-121833868D01*
X151870080Y-121815612D01*
X151980089Y-121776617D01*
X152081430Y-121717670D01*
X152172921Y-121639557D01*
X152253380Y-121543064D01*
X152321627Y-121428978D01*
X152337908Y-121394724D01*
X152383982Y-121271240D01*
X152419106Y-121132918D01*
X152443197Y-120983561D01*
X152456173Y-120826973D01*
X152457949Y-120666956D01*
X152448443Y-120507314D01*
X152427572Y-120351850D01*
X152395252Y-120204366D01*
X152351399Y-120068667D01*
X152313982Y-119982076D01*
X152249185Y-119868688D01*
X152173772Y-119775070D01*
X152087418Y-119700959D01*
X151989795Y-119646094D01*
X151880577Y-119610212D01*
X151759439Y-119593051D01*
X151690038Y-119591880D01*
X151567168Y-119606141D01*
X151451664Y-119641241D01*
X151344953Y-119696682D01*
X151248464Y-119771964D01*
X151232720Y-119786440D01*
X151202150Y-119812962D01*
X151179809Y-119830138D01*
X151169691Y-119834787D01*
X151167706Y-119832597D01*
X151153241Y-119813721D01*
X151129400Y-119780397D01*
X151098029Y-119735380D01*
X151060974Y-119681425D01*
X151020083Y-119621285D01*
X150977202Y-119557718D01*
X150934178Y-119493476D01*
X150892857Y-119431315D01*
X150855086Y-119373991D01*
X150822712Y-119324257D01*
X150797582Y-119284868D01*
X150781542Y-119258580D01*
X150776439Y-119248147D01*
X150781050Y-119243941D01*
X150800267Y-119238933D01*
X150809838Y-119236386D01*
X150837809Y-119225249D01*
X150879448Y-119206802D01*
X150930995Y-119182725D01*
X150988690Y-119154699D01*
X150999957Y-119149154D01*
X151177687Y-119069889D01*
X151347490Y-119010385D01*
X151511430Y-118970245D01*
X151671571Y-118949071D01*
X151829977Y-118946466D01*
X151988711Y-118962033D01*
G36*
X151988711Y-118962033D02*
G01*
X152084268Y-118979523D01*
X152248558Y-119024564D01*
X152402589Y-119087656D01*
X152548509Y-119169915D01*
X152688466Y-119272457D01*
X152824608Y-119396399D01*
X152868473Y-119441661D01*
X152980758Y-119573865D01*
X153073972Y-119711832D01*
X153150719Y-119859750D01*
X153213603Y-120021803D01*
X153217420Y-120033391D01*
X153267507Y-120219392D01*
X153300899Y-120415521D01*
X153317584Y-120617568D01*
X153317551Y-120821325D01*
X153300791Y-121022581D01*
X153267292Y-121217128D01*
X153217044Y-121400756D01*
X153173190Y-121518053D01*
X153095348Y-121680951D01*
X153001828Y-121834866D01*
X152894822Y-121976671D01*
X152776519Y-122103239D01*
X152649111Y-122211441D01*
X152571606Y-122264120D01*
X152444725Y-122333750D01*
X152307243Y-122392468D01*
X152165716Y-122437587D01*
X152026702Y-122466422D01*
X152012597Y-122468106D01*
X151969153Y-122471434D01*
X151911723Y-122474275D01*
X151846122Y-122476373D01*
X151778167Y-122477468D01*
X151651378Y-122475140D01*
X151503673Y-122462136D01*
X151365779Y-122437133D01*
X151232014Y-122399318D01*
X151208562Y-122390889D01*
X151160612Y-122371408D01*
X151104140Y-122346473D01*
X151042379Y-122317722D01*
X150978563Y-122286790D01*
X150915926Y-122255315D01*
X150857703Y-122224934D01*
X150807127Y-122197283D01*
X150767433Y-122173999D01*
X150741854Y-122156718D01*
X150733625Y-122147079D01*
X150735076Y-122143984D01*
X150746250Y-122124079D01*
X150767134Y-122088420D01*
X150796265Y-122039459D01*
X150832181Y-121979646D01*
X150873420Y-121911433D01*
X150918517Y-121837271D01*
X151099785Y-121540008D01*
X151146315Y-121584539D01*
X151237723Y-121662865D01*
X151351334Y-121737439D01*
X151469122Y-121791474D01*
X151589559Y-121824290D01*
X151711117Y-121835211D01*
X151752585Y-121833868D01*
X151870080Y-121815612D01*
X151980089Y-121776617D01*
X152081430Y-121717670D01*
X152172921Y-121639557D01*
X152253380Y-121543064D01*
X152321627Y-121428978D01*
X152337908Y-121394724D01*
X152383982Y-121271240D01*
X152419106Y-121132918D01*
X152443197Y-120983561D01*
X152456173Y-120826973D01*
X152457949Y-120666956D01*
X152448443Y-120507314D01*
X152427572Y-120351850D01*
X152395252Y-120204366D01*
X152351399Y-120068667D01*
X152313982Y-119982076D01*
X152249185Y-119868688D01*
X152173772Y-119775070D01*
X152087418Y-119700959D01*
X151989795Y-119646094D01*
X151880577Y-119610212D01*
X151759439Y-119593051D01*
X151690038Y-119591880D01*
X151567168Y-119606141D01*
X151451664Y-119641241D01*
X151344953Y-119696682D01*
X151248464Y-119771964D01*
X151232720Y-119786440D01*
X151202150Y-119812962D01*
X151179809Y-119830138D01*
X151169691Y-119834787D01*
X151167706Y-119832597D01*
X151153241Y-119813721D01*
X151129400Y-119780397D01*
X151098029Y-119735380D01*
X151060974Y-119681425D01*
X151020083Y-119621285D01*
X150977202Y-119557718D01*
X150934178Y-119493476D01*
X150892857Y-119431315D01*
X150855086Y-119373991D01*
X150822712Y-119324257D01*
X150797582Y-119284868D01*
X150781542Y-119258580D01*
X150776439Y-119248147D01*
X150781050Y-119243941D01*
X150800267Y-119238933D01*
X150809838Y-119236386D01*
X150837809Y-119225249D01*
X150879448Y-119206802D01*
X150930995Y-119182725D01*
X150988690Y-119154699D01*
X150999957Y-119149154D01*
X151177687Y-119069889D01*
X151347490Y-119010385D01*
X151511430Y-118970245D01*
X151671571Y-118949071D01*
X151829977Y-118946466D01*
X151988711Y-118962033D01*
G37*
X148185994Y-121242711D02*
X148185268Y-121320158D01*
X148176689Y-121471594D01*
X148157833Y-121608283D01*
X148127837Y-121734276D01*
X148085836Y-121853625D01*
X148030969Y-121970381D01*
X147964167Y-122081179D01*
X147873363Y-122194739D01*
X147769708Y-122290211D01*
X147653887Y-122367073D01*
X147526586Y-122424797D01*
X147388489Y-122462858D01*
X147350793Y-122468666D01*
X147271752Y-122474396D01*
X147183629Y-122474583D01*
X147094236Y-122469539D01*
X147011384Y-122459578D01*
X146942887Y-122445012D01*
X146912035Y-122435364D01*
X146834730Y-122405123D01*
X146757679Y-122367617D01*
X146688200Y-122326614D01*
X146633615Y-122285879D01*
X146610916Y-122266505D01*
X146588201Y-122248662D01*
X146576779Y-122241778D01*
X146575537Y-122243424D01*
X146572728Y-122261205D01*
X146570776Y-122294370D01*
X146570045Y-122337733D01*
X146570045Y-122433689D01*
X145711896Y-122433689D01*
X145746161Y-122372974D01*
X145751355Y-122363868D01*
X145759715Y-122349249D01*
X145767288Y-122335173D01*
X145774112Y-122320540D01*
X145780227Y-122304249D01*
X145785673Y-122285198D01*
X145790487Y-122262286D01*
X145794708Y-122234413D01*
X145798377Y-122200478D01*
X145801531Y-122159379D01*
X145804211Y-122110015D01*
X145806454Y-122051286D01*
X145808299Y-121982090D01*
X145809787Y-121901326D01*
X145810955Y-121807894D01*
X145811844Y-121700692D01*
X145812491Y-121578620D01*
X145812936Y-121440576D01*
X145813218Y-121285459D01*
X145813375Y-121112168D01*
X145813448Y-120919603D01*
X145813474Y-120706662D01*
X145813485Y-120570530D01*
X146615200Y-120570530D01*
X146615200Y-121720721D01*
X146685756Y-121767089D01*
X146726417Y-121790791D01*
X146780546Y-121816639D01*
X146829689Y-121834829D01*
X146893165Y-121850551D01*
X146989331Y-121861541D01*
X147073900Y-121853365D01*
X147147219Y-121825805D01*
X147209637Y-121778642D01*
X147261502Y-121711658D01*
X147303160Y-121624633D01*
X147334962Y-121517350D01*
X147337545Y-121505009D01*
X147346000Y-121443772D01*
X147351663Y-121366692D01*
X147354576Y-121279002D01*
X147354783Y-121185934D01*
X147352330Y-121092720D01*
X147347261Y-121004594D01*
X147339619Y-120926788D01*
X147329448Y-120864533D01*
X147328167Y-120858666D01*
X147299126Y-120748121D01*
X147264610Y-120657575D01*
X147223456Y-120584953D01*
X147174499Y-120528181D01*
X147116574Y-120485184D01*
X147084620Y-120469615D01*
X147011784Y-120450722D01*
X146930443Y-120447465D01*
X146845319Y-120459389D01*
X146761133Y-120486040D01*
X146682608Y-120526962D01*
X146615200Y-120570530D01*
X145813485Y-120570530D01*
X145813493Y-120472245D01*
X145813689Y-118787378D01*
X146719017Y-118787378D01*
X146694585Y-118824067D01*
X146688318Y-118833647D01*
X146662208Y-118879981D01*
X146644469Y-118927102D01*
X146632908Y-118982251D01*
X146625331Y-119052667D01*
X146624839Y-119059650D01*
X146623062Y-119097641D01*
X146621444Y-119151576D01*
X146619999Y-119218703D01*
X146618740Y-119296271D01*
X146617680Y-119381528D01*
X146616829Y-119471724D01*
X146616203Y-119564107D01*
X146615812Y-119655925D01*
X146615670Y-119744427D01*
X146615790Y-119826862D01*
X146616183Y-119900479D01*
X146616862Y-119962526D01*
X146617841Y-120010251D01*
X146619132Y-120040904D01*
X146620747Y-120051733D01*
X146628957Y-120047333D01*
X146650647Y-120032362D01*
X146680014Y-120010448D01*
X146728879Y-119976236D01*
X146817125Y-119929714D01*
X146915916Y-119896046D01*
X147028510Y-119874231D01*
X147158164Y-119863265D01*
X147250670Y-119862219D01*
X147372011Y-119872014D01*
X147482099Y-119896174D01*
X147585389Y-119935785D01*
X147686338Y-119991932D01*
X147731503Y-120022883D01*
X147836911Y-120114115D01*
X147928538Y-120223106D01*
X148006332Y-120349726D01*
X148070241Y-120493845D01*
X148120214Y-120655332D01*
X148156198Y-120834059D01*
X148178143Y-121029895D01*
X148183900Y-121185934D01*
X148185994Y-121242711D01*
G36*
X148185994Y-121242711D02*
G01*
X148185268Y-121320158D01*
X148176689Y-121471594D01*
X148157833Y-121608283D01*
X148127837Y-121734276D01*
X148085836Y-121853625D01*
X148030969Y-121970381D01*
X147964167Y-122081179D01*
X147873363Y-122194739D01*
X147769708Y-122290211D01*
X147653887Y-122367073D01*
X147526586Y-122424797D01*
X147388489Y-122462858D01*
X147350793Y-122468666D01*
X147271752Y-122474396D01*
X147183629Y-122474583D01*
X147094236Y-122469539D01*
X147011384Y-122459578D01*
X146942887Y-122445012D01*
X146912035Y-122435364D01*
X146834730Y-122405123D01*
X146757679Y-122367617D01*
X146688200Y-122326614D01*
X146633615Y-122285879D01*
X146610916Y-122266505D01*
X146588201Y-122248662D01*
X146576779Y-122241778D01*
X146575537Y-122243424D01*
X146572728Y-122261205D01*
X146570776Y-122294370D01*
X146570045Y-122337733D01*
X146570045Y-122433689D01*
X145711896Y-122433689D01*
X145746161Y-122372974D01*
X145751355Y-122363868D01*
X145759715Y-122349249D01*
X145767288Y-122335173D01*
X145774112Y-122320540D01*
X145780227Y-122304249D01*
X145785673Y-122285198D01*
X145790487Y-122262286D01*
X145794708Y-122234413D01*
X145798377Y-122200478D01*
X145801531Y-122159379D01*
X145804211Y-122110015D01*
X145806454Y-122051286D01*
X145808299Y-121982090D01*
X145809787Y-121901326D01*
X145810955Y-121807894D01*
X145811844Y-121700692D01*
X145812491Y-121578620D01*
X145812936Y-121440576D01*
X145813218Y-121285459D01*
X145813375Y-121112168D01*
X145813448Y-120919603D01*
X145813474Y-120706662D01*
X145813485Y-120570530D01*
X146615200Y-120570530D01*
X146615200Y-121720721D01*
X146685756Y-121767089D01*
X146726417Y-121790791D01*
X146780546Y-121816639D01*
X146829689Y-121834829D01*
X146893165Y-121850551D01*
X146989331Y-121861541D01*
X147073900Y-121853365D01*
X147147219Y-121825805D01*
X147209637Y-121778642D01*
X147261502Y-121711658D01*
X147303160Y-121624633D01*
X147334962Y-121517350D01*
X147337545Y-121505009D01*
X147346000Y-121443772D01*
X147351663Y-121366692D01*
X147354576Y-121279002D01*
X147354783Y-121185934D01*
X147352330Y-121092720D01*
X147347261Y-121004594D01*
X147339619Y-120926788D01*
X147329448Y-120864533D01*
X147328167Y-120858666D01*
X147299126Y-120748121D01*
X147264610Y-120657575D01*
X147223456Y-120584953D01*
X147174499Y-120528181D01*
X147116574Y-120485184D01*
X147084620Y-120469615D01*
X147011784Y-120450722D01*
X146930443Y-120447465D01*
X146845319Y-120459389D01*
X146761133Y-120486040D01*
X146682608Y-120526962D01*
X146615200Y-120570530D01*
X145813485Y-120570530D01*
X145813493Y-120472245D01*
X145813689Y-118787378D01*
X146719017Y-118787378D01*
X146694585Y-118824067D01*
X146688318Y-118833647D01*
X146662208Y-118879981D01*
X146644469Y-118927102D01*
X146632908Y-118982251D01*
X146625331Y-119052667D01*
X146624839Y-119059650D01*
X146623062Y-119097641D01*
X146621444Y-119151576D01*
X146619999Y-119218703D01*
X146618740Y-119296271D01*
X146617680Y-119381528D01*
X146616829Y-119471724D01*
X146616203Y-119564107D01*
X146615812Y-119655925D01*
X146615670Y-119744427D01*
X146615790Y-119826862D01*
X146616183Y-119900479D01*
X146616862Y-119962526D01*
X146617841Y-120010251D01*
X146619132Y-120040904D01*
X146620747Y-120051733D01*
X146628957Y-120047333D01*
X146650647Y-120032362D01*
X146680014Y-120010448D01*
X146728879Y-119976236D01*
X146817125Y-119929714D01*
X146915916Y-119896046D01*
X147028510Y-119874231D01*
X147158164Y-119863265D01*
X147250670Y-119862219D01*
X147372011Y-119872014D01*
X147482099Y-119896174D01*
X147585389Y-119935785D01*
X147686338Y-119991932D01*
X147731503Y-120022883D01*
X147836911Y-120114115D01*
X147928538Y-120223106D01*
X148006332Y-120349726D01*
X148070241Y-120493845D01*
X148120214Y-120655332D01*
X148156198Y-120834059D01*
X148178143Y-121029895D01*
X148183900Y-121185934D01*
X148185994Y-121242711D01*
G37*
X150727755Y-121643467D02*
X150727261Y-121677363D01*
X150723632Y-121752202D01*
X150716022Y-121814401D01*
X150703688Y-121870984D01*
X150659313Y-121997076D01*
X150596400Y-122111679D01*
X150516238Y-122212568D01*
X150419740Y-122298924D01*
X150307822Y-122369932D01*
X150181397Y-122424776D01*
X150041378Y-122462638D01*
X150005149Y-122468351D01*
X149926155Y-122474313D01*
X149837841Y-122474646D01*
X149748075Y-122469659D01*
X149664722Y-122459666D01*
X149595651Y-122444978D01*
X149509187Y-122414749D01*
X149399286Y-122360057D01*
X149301956Y-122292543D01*
X149239867Y-122241556D01*
X149236605Y-122337622D01*
X149233343Y-122433689D01*
X148810450Y-122433689D01*
X148799543Y-122433686D01*
X148705056Y-122433380D01*
X148618331Y-122432616D01*
X148541837Y-122431451D01*
X148478043Y-122429942D01*
X148429418Y-122428147D01*
X148398433Y-122426121D01*
X148387556Y-122423922D01*
X148387578Y-122423463D01*
X148394614Y-122407910D01*
X148410434Y-122385071D01*
X148414734Y-122379638D01*
X148425777Y-122365606D01*
X148435311Y-122352186D01*
X148443461Y-122337722D01*
X148450352Y-122320556D01*
X148456111Y-122299034D01*
X148460862Y-122271498D01*
X148464731Y-122236292D01*
X148467844Y-122191760D01*
X148470325Y-122136246D01*
X148472300Y-122068093D01*
X148473894Y-121985645D01*
X148475234Y-121887246D01*
X148476444Y-121771239D01*
X148477649Y-121635968D01*
X148478595Y-121524586D01*
X149279378Y-121524586D01*
X149279378Y-121720462D01*
X149324048Y-121776973D01*
X149336785Y-121792212D01*
X149383604Y-121834844D01*
X149444255Y-121870672D01*
X149454897Y-121875850D01*
X149493676Y-121892745D01*
X149528692Y-121902909D01*
X149568722Y-121908325D01*
X149622541Y-121910978D01*
X149640648Y-121911383D01*
X149716011Y-121908540D01*
X149776743Y-121896620D01*
X149828452Y-121874037D01*
X149876746Y-121839211D01*
X149881803Y-121834798D01*
X149930272Y-121779160D01*
X149958459Y-121715333D01*
X149967752Y-121640282D01*
X149960520Y-121568693D01*
X149935796Y-121505645D01*
X149891249Y-121447758D01*
X149836319Y-121400808D01*
X149763894Y-121360961D01*
X149677340Y-121333263D01*
X149574670Y-121317096D01*
X149453894Y-121311842D01*
X149445007Y-121311857D01*
X149389660Y-121312655D01*
X149342736Y-121314488D01*
X149308953Y-121317111D01*
X149293028Y-121320274D01*
X149288943Y-121326741D01*
X149284572Y-121348875D01*
X149281604Y-121387988D01*
X149279914Y-121445939D01*
X149279378Y-121524586D01*
X148478595Y-121524586D01*
X148478975Y-121479778D01*
X148480228Y-121337012D01*
X148481651Y-121191942D01*
X148483176Y-121066027D01*
X148484933Y-120957436D01*
X148487051Y-120864334D01*
X148489660Y-120784891D01*
X148492890Y-120717273D01*
X148496869Y-120659649D01*
X148501728Y-120610185D01*
X148507597Y-120567050D01*
X148514604Y-120528410D01*
X148522880Y-120492434D01*
X148532554Y-120457289D01*
X148543756Y-120421142D01*
X148556616Y-120382161D01*
X148572090Y-120339091D01*
X148614994Y-120246871D01*
X148668735Y-120167099D01*
X148737576Y-120092965D01*
X148815185Y-120029405D01*
X148919761Y-119967725D01*
X149039244Y-119920202D01*
X149174508Y-119886567D01*
X149326426Y-119866552D01*
X149495872Y-119859889D01*
X149553890Y-119860287D01*
X149619398Y-119862335D01*
X149680693Y-119866704D01*
X149742097Y-119874035D01*
X149807932Y-119884969D01*
X149882520Y-119900147D01*
X149970184Y-119920209D01*
X150075245Y-119945797D01*
X150103806Y-119952820D01*
X150179054Y-119970776D01*
X150249388Y-119986820D01*
X150310567Y-120000028D01*
X150358354Y-120009474D01*
X150388511Y-120014231D01*
X150416783Y-120017910D01*
X150443060Y-120023187D01*
X150453059Y-120027942D01*
X150449952Y-120036781D01*
X150439194Y-120064072D01*
X150421864Y-120106906D01*
X150399126Y-120162425D01*
X150372147Y-120227772D01*
X150342090Y-120300089D01*
X150335493Y-120315879D01*
X150296907Y-120406484D01*
X150265768Y-120476217D01*
X150241917Y-120525405D01*
X150225198Y-120554374D01*
X150215454Y-120563452D01*
X150207766Y-120561405D01*
X150181415Y-120551760D01*
X150142982Y-120536190D01*
X150097822Y-120516815D01*
X150003293Y-120478814D01*
X149866480Y-120437780D01*
X149725289Y-120412612D01*
X149687314Y-120408611D01*
X149584059Y-120406447D01*
X149496952Y-120419622D01*
X149425129Y-120448756D01*
X149367731Y-120494466D01*
X149323896Y-120557372D01*
X149292762Y-120638092D01*
X149273470Y-120737245D01*
X149266050Y-120796224D01*
X149427936Y-120789445D01*
X149554495Y-120787813D01*
X149705951Y-120794194D01*
X149854396Y-120808777D01*
X149990578Y-120830882D01*
X150055245Y-120845821D01*
X150187490Y-120888741D01*
X150309762Y-120945340D01*
X150419685Y-121014017D01*
X150514883Y-121093170D01*
X150592980Y-121181196D01*
X150651599Y-121276493D01*
X150675595Y-121328864D01*
X150701232Y-121399590D01*
X150717478Y-121470812D01*
X150725822Y-121549712D01*
X150727690Y-121640282D01*
X150727755Y-121643467D01*
G36*
X150727755Y-121643467D02*
G01*
X150727261Y-121677363D01*
X150723632Y-121752202D01*
X150716022Y-121814401D01*
X150703688Y-121870984D01*
X150659313Y-121997076D01*
X150596400Y-122111679D01*
X150516238Y-122212568D01*
X150419740Y-122298924D01*
X150307822Y-122369932D01*
X150181397Y-122424776D01*
X150041378Y-122462638D01*
X150005149Y-122468351D01*
X149926155Y-122474313D01*
X149837841Y-122474646D01*
X149748075Y-122469659D01*
X149664722Y-122459666D01*
X149595651Y-122444978D01*
X149509187Y-122414749D01*
X149399286Y-122360057D01*
X149301956Y-122292543D01*
X149239867Y-122241556D01*
X149236605Y-122337622D01*
X149233343Y-122433689D01*
X148810450Y-122433689D01*
X148799543Y-122433686D01*
X148705056Y-122433380D01*
X148618331Y-122432616D01*
X148541837Y-122431451D01*
X148478043Y-122429942D01*
X148429418Y-122428147D01*
X148398433Y-122426121D01*
X148387556Y-122423922D01*
X148387578Y-122423463D01*
X148394614Y-122407910D01*
X148410434Y-122385071D01*
X148414734Y-122379638D01*
X148425777Y-122365606D01*
X148435311Y-122352186D01*
X148443461Y-122337722D01*
X148450352Y-122320556D01*
X148456111Y-122299034D01*
X148460862Y-122271498D01*
X148464731Y-122236292D01*
X148467844Y-122191760D01*
X148470325Y-122136246D01*
X148472300Y-122068093D01*
X148473894Y-121985645D01*
X148475234Y-121887246D01*
X148476444Y-121771239D01*
X148477649Y-121635968D01*
X148478595Y-121524586D01*
X149279378Y-121524586D01*
X149279378Y-121720462D01*
X149324048Y-121776973D01*
X149336785Y-121792212D01*
X149383604Y-121834844D01*
X149444255Y-121870672D01*
X149454897Y-121875850D01*
X149493676Y-121892745D01*
X149528692Y-121902909D01*
X149568722Y-121908325D01*
X149622541Y-121910978D01*
X149640648Y-121911383D01*
X149716011Y-121908540D01*
X149776743Y-121896620D01*
X149828452Y-121874037D01*
X149876746Y-121839211D01*
X149881803Y-121834798D01*
X149930272Y-121779160D01*
X149958459Y-121715333D01*
X149967752Y-121640282D01*
X149960520Y-121568693D01*
X149935796Y-121505645D01*
X149891249Y-121447758D01*
X149836319Y-121400808D01*
X149763894Y-121360961D01*
X149677340Y-121333263D01*
X149574670Y-121317096D01*
X149453894Y-121311842D01*
X149445007Y-121311857D01*
X149389660Y-121312655D01*
X149342736Y-121314488D01*
X149308953Y-121317111D01*
X149293028Y-121320274D01*
X149288943Y-121326741D01*
X149284572Y-121348875D01*
X149281604Y-121387988D01*
X149279914Y-121445939D01*
X149279378Y-121524586D01*
X148478595Y-121524586D01*
X148478975Y-121479778D01*
X148480228Y-121337012D01*
X148481651Y-121191942D01*
X148483176Y-121066027D01*
X148484933Y-120957436D01*
X148487051Y-120864334D01*
X148489660Y-120784891D01*
X148492890Y-120717273D01*
X148496869Y-120659649D01*
X148501728Y-120610185D01*
X148507597Y-120567050D01*
X148514604Y-120528410D01*
X148522880Y-120492434D01*
X148532554Y-120457289D01*
X148543756Y-120421142D01*
X148556616Y-120382161D01*
X148572090Y-120339091D01*
X148614994Y-120246871D01*
X148668735Y-120167099D01*
X148737576Y-120092965D01*
X148815185Y-120029405D01*
X148919761Y-119967725D01*
X149039244Y-119920202D01*
X149174508Y-119886567D01*
X149326426Y-119866552D01*
X149495872Y-119859889D01*
X149553890Y-119860287D01*
X149619398Y-119862335D01*
X149680693Y-119866704D01*
X149742097Y-119874035D01*
X149807932Y-119884969D01*
X149882520Y-119900147D01*
X149970184Y-119920209D01*
X150075245Y-119945797D01*
X150103806Y-119952820D01*
X150179054Y-119970776D01*
X150249388Y-119986820D01*
X150310567Y-120000028D01*
X150358354Y-120009474D01*
X150388511Y-120014231D01*
X150416783Y-120017910D01*
X150443060Y-120023187D01*
X150453059Y-120027942D01*
X150449952Y-120036781D01*
X150439194Y-120064072D01*
X150421864Y-120106906D01*
X150399126Y-120162425D01*
X150372147Y-120227772D01*
X150342090Y-120300089D01*
X150335493Y-120315879D01*
X150296907Y-120406484D01*
X150265768Y-120476217D01*
X150241917Y-120525405D01*
X150225198Y-120554374D01*
X150215454Y-120563452D01*
X150207766Y-120561405D01*
X150181415Y-120551760D01*
X150142982Y-120536190D01*
X150097822Y-120516815D01*
X150003293Y-120478814D01*
X149866480Y-120437780D01*
X149725289Y-120412612D01*
X149687314Y-120408611D01*
X149584059Y-120406447D01*
X149496952Y-120419622D01*
X149425129Y-120448756D01*
X149367731Y-120494466D01*
X149323896Y-120557372D01*
X149292762Y-120638092D01*
X149273470Y-120737245D01*
X149266050Y-120796224D01*
X149427936Y-120789445D01*
X149554495Y-120787813D01*
X149705951Y-120794194D01*
X149854396Y-120808777D01*
X149990578Y-120830882D01*
X150055245Y-120845821D01*
X150187490Y-120888741D01*
X150309762Y-120945340D01*
X150419685Y-121014017D01*
X150514883Y-121093170D01*
X150592980Y-121181196D01*
X150651599Y-121276493D01*
X150675595Y-121328864D01*
X150701232Y-121399590D01*
X150717478Y-121470812D01*
X150725822Y-121549712D01*
X150727690Y-121640282D01*
X150727755Y-121643467D01*
G37*
X158275614Y-119111792D02*
X158276059Y-119243011D01*
X158276362Y-119390216D01*
X158276548Y-119554349D01*
X158276642Y-119736352D01*
X158276671Y-119937165D01*
X158276661Y-120157732D01*
X158276636Y-120398992D01*
X158276622Y-120661889D01*
X158276622Y-120704040D01*
X158276646Y-120964668D01*
X158276685Y-121203796D01*
X158276708Y-121422360D01*
X158276687Y-121621295D01*
X158276593Y-121801535D01*
X158276395Y-121964015D01*
X158276063Y-122109670D01*
X158275569Y-122239434D01*
X158274883Y-122354243D01*
X158273976Y-122455030D01*
X158272817Y-122542730D01*
X158271378Y-122618279D01*
X158269629Y-122682611D01*
X158267540Y-122736661D01*
X158265083Y-122781363D01*
X158262227Y-122817652D01*
X158258943Y-122846463D01*
X158255202Y-122868731D01*
X158250974Y-122885390D01*
X158246229Y-122897375D01*
X158240939Y-122905621D01*
X158235073Y-122911062D01*
X158228602Y-122914634D01*
X158221497Y-122917270D01*
X158213728Y-122919906D01*
X158205266Y-122923477D01*
X158200908Y-122925145D01*
X158192395Y-122927111D01*
X158179694Y-122928911D01*
X158161885Y-122930555D01*
X158138049Y-122932047D01*
X158107266Y-122933397D01*
X158068617Y-122934611D01*
X158021182Y-122935697D01*
X157964043Y-122936661D01*
X157896279Y-122937511D01*
X157816971Y-122938253D01*
X157725199Y-122938897D01*
X157620044Y-122939447D01*
X157500587Y-122939913D01*
X157365908Y-122940300D01*
X157215088Y-122940616D01*
X157047206Y-122940869D01*
X156861345Y-122941066D01*
X156656583Y-122941213D01*
X156432002Y-122941318D01*
X156186682Y-122941389D01*
X155919704Y-122941432D01*
X155881321Y-122941437D01*
X155615922Y-122941480D01*
X155372050Y-122941525D01*
X155148783Y-122941548D01*
X154945196Y-122941524D01*
X154760367Y-122941430D01*
X154593373Y-122941243D01*
X154443290Y-122940939D01*
X154309196Y-122940494D01*
X154190166Y-122939885D01*
X154085279Y-122939089D01*
X153993610Y-122938080D01*
X153914237Y-122936837D01*
X153846237Y-122935335D01*
X153788686Y-122933551D01*
X153740662Y-122931461D01*
X153701240Y-122929042D01*
X153669499Y-122926270D01*
X153644514Y-122923121D01*
X153625364Y-122919572D01*
X153611123Y-122915598D01*
X153600871Y-122911178D01*
X153593682Y-122906286D01*
X153588635Y-122900900D01*
X153584805Y-122894996D01*
X153581271Y-122888549D01*
X153577108Y-122881537D01*
X153576025Y-122879687D01*
X153573813Y-122874180D01*
X153571786Y-122865868D01*
X153569938Y-122853809D01*
X153568261Y-122837063D01*
X153566745Y-122814687D01*
X153565383Y-122785740D01*
X153564167Y-122749280D01*
X153563089Y-122704367D01*
X153562140Y-122650057D01*
X153561312Y-122585410D01*
X153560597Y-122509484D01*
X153559987Y-122421338D01*
X153559942Y-122412493D01*
X153851378Y-122412493D01*
X153855260Y-122413765D01*
X153878520Y-122415791D01*
X153920874Y-122417626D01*
X153980132Y-122419227D01*
X154054107Y-122420549D01*
X154140610Y-122421548D01*
X154237452Y-122422180D01*
X154342445Y-122422400D01*
X155040651Y-122422400D01*
X156195090Y-122422400D01*
X156194456Y-122346200D01*
X156195574Y-122304160D01*
X156201304Y-122268334D01*
X156213890Y-122230772D01*
X156235568Y-122182577D01*
X156238789Y-122175897D01*
X156264188Y-122126359D01*
X156290996Y-122078369D01*
X156313917Y-122041466D01*
X156318485Y-122034834D01*
X156340516Y-122003593D01*
X156372693Y-121958654D01*
X156413457Y-121902147D01*
X156461245Y-121836204D01*
X156514498Y-121762957D01*
X156571655Y-121684536D01*
X156631155Y-121603072D01*
X156691437Y-121520698D01*
X156750940Y-121439544D01*
X156808105Y-121361742D01*
X156861370Y-121289423D01*
X156909174Y-121224718D01*
X156949957Y-121169759D01*
X156982158Y-121126676D01*
X157004216Y-121097602D01*
X157014571Y-121084667D01*
X157019044Y-121080351D01*
X157023236Y-121078312D01*
X157026643Y-121080926D01*
X157029325Y-121089986D01*
X157031341Y-121107285D01*
X157032748Y-121134614D01*
X157033605Y-121173765D01*
X157033970Y-121226533D01*
X157033903Y-121294707D01*
X157033460Y-121380082D01*
X157032702Y-121484449D01*
X157031685Y-121609600D01*
X157031308Y-121654300D01*
X157030169Y-121775395D01*
X157028972Y-121876688D01*
X157027636Y-121960262D01*
X157026077Y-122028204D01*
X157024215Y-122082599D01*
X157021966Y-122125532D01*
X157019248Y-122159089D01*
X157015979Y-122185355D01*
X157012078Y-122206416D01*
X157007461Y-122224357D01*
X156999192Y-122250770D01*
X156975583Y-122312772D01*
X156949685Y-122365573D01*
X156924535Y-122402645D01*
X156923339Y-122404075D01*
X156921168Y-122408424D01*
X156923328Y-122412026D01*
X156931644Y-122414951D01*
X156947940Y-122417269D01*
X156974041Y-122419051D01*
X157011771Y-122420367D01*
X157062956Y-122421286D01*
X157129420Y-122421878D01*
X157212987Y-122422215D01*
X157315483Y-122422365D01*
X157438732Y-122422400D01*
X157970296Y-122422400D01*
X157931523Y-122364783D01*
X157925432Y-122355893D01*
X157914976Y-122341069D01*
X157905579Y-122327422D01*
X157897183Y-122313765D01*
X157889733Y-122298911D01*
X157883173Y-122281670D01*
X157877446Y-122260855D01*
X157872495Y-122235280D01*
X157868266Y-122203755D01*
X157864701Y-122165093D01*
X157861744Y-122118107D01*
X157859340Y-122061608D01*
X157857431Y-121994409D01*
X157855962Y-121915322D01*
X157854876Y-121823160D01*
X157854118Y-121716734D01*
X157853630Y-121594857D01*
X157853358Y-121456341D01*
X157853243Y-121299999D01*
X157853231Y-121124642D01*
X157853265Y-120929082D01*
X157853289Y-120712133D01*
X157853280Y-120589513D01*
X157853243Y-120384447D01*
X157853227Y-120200116D01*
X157853288Y-120035334D01*
X157853484Y-119888916D01*
X157853870Y-119759674D01*
X157854505Y-119646422D01*
X157855444Y-119547975D01*
X157856745Y-119463144D01*
X157858464Y-119390744D01*
X157860659Y-119329589D01*
X157863385Y-119278492D01*
X157866701Y-119236267D01*
X157870662Y-119201727D01*
X157875325Y-119173686D01*
X157880747Y-119150958D01*
X157886986Y-119132356D01*
X157894097Y-119116693D01*
X157902138Y-119102784D01*
X157911166Y-119089441D01*
X157921236Y-119075479D01*
X157932407Y-119059711D01*
X157972197Y-119001867D01*
X156912314Y-119001867D01*
X156950311Y-119064966D01*
X156964993Y-119090005D01*
X156979531Y-119117586D01*
X156991627Y-119145700D01*
X157001532Y-119176551D01*
X157009494Y-119212344D01*
X157015761Y-119255283D01*
X157020582Y-119307574D01*
X157024206Y-119371419D01*
X157026881Y-119449025D01*
X157028857Y-119542594D01*
X157030382Y-119654333D01*
X157031704Y-119786445D01*
X157032613Y-119906434D01*
X157033020Y-120023063D01*
X157032767Y-120118531D01*
X157031857Y-120192556D01*
X157030293Y-120244855D01*
X157028079Y-120275149D01*
X157025220Y-120283156D01*
X157022161Y-120279858D01*
X157004006Y-120258408D01*
X156974275Y-120221889D01*
X156934639Y-120172442D01*
X156886771Y-120112207D01*
X156832343Y-120043327D01*
X156773027Y-119967943D01*
X156710495Y-119888196D01*
X156646421Y-119806228D01*
X156582475Y-119724180D01*
X156520331Y-119644194D01*
X156461661Y-119568411D01*
X156408137Y-119498973D01*
X156361430Y-119438021D01*
X156323214Y-119387696D01*
X156295161Y-119350140D01*
X156278943Y-119327495D01*
X156233635Y-119255212D01*
X156193661Y-119175463D01*
X156172130Y-119107188D01*
X156168827Y-119049844D01*
X156174116Y-119001867D01*
X155042356Y-119002117D01*
X155081867Y-119032722D01*
X155091248Y-119040089D01*
X155154183Y-119094438D01*
X155222997Y-119162259D01*
X155299596Y-119245516D01*
X155385888Y-119346178D01*
X155403052Y-119366847D01*
X155443833Y-119416409D01*
X155493588Y-119477326D01*
X155550955Y-119547898D01*
X155614569Y-119626424D01*
X155683069Y-119711204D01*
X155755090Y-119800537D01*
X155829270Y-119892722D01*
X155844517Y-119911702D01*
X155904246Y-119986060D01*
X155978653Y-120078848D01*
X156051131Y-120169388D01*
X156120314Y-120255978D01*
X156184841Y-120336918D01*
X156243347Y-120410506D01*
X156294470Y-120475044D01*
X156336847Y-120528829D01*
X156369115Y-120570162D01*
X156389910Y-120597342D01*
X156397869Y-120608668D01*
X156396111Y-120612771D01*
X156383230Y-120633334D01*
X156358885Y-120669561D01*
X156324247Y-120719824D01*
X156280486Y-120782492D01*
X156228775Y-120855936D01*
X156170284Y-120938527D01*
X156106184Y-121028636D01*
X156037646Y-121124631D01*
X155965843Y-121224885D01*
X155891944Y-121327768D01*
X155817121Y-121431650D01*
X155742545Y-121534901D01*
X155669387Y-121635892D01*
X155598819Y-121732994D01*
X155532011Y-121824577D01*
X155470135Y-121909011D01*
X155414361Y-121984667D01*
X155365862Y-122049916D01*
X155325807Y-122103128D01*
X155295369Y-122142673D01*
X155274944Y-122168026D01*
X155228899Y-122222295D01*
X155178612Y-122278775D01*
X155131815Y-122328669D01*
X155040651Y-122422400D01*
X154342445Y-122422400D01*
X154411356Y-122422349D01*
X154509607Y-122422091D01*
X154599030Y-122421637D01*
X154677333Y-122421010D01*
X154742223Y-122420235D01*
X154791411Y-122419335D01*
X154822604Y-122418334D01*
X154833511Y-122417257D01*
X154832322Y-122414037D01*
X154822176Y-122396452D01*
X154805040Y-122370158D01*
X154796540Y-122357691D01*
X154787329Y-122343622D01*
X154779233Y-122329351D01*
X154772185Y-122313479D01*
X154766117Y-122294609D01*
X154760961Y-122271341D01*
X154756651Y-122242278D01*
X154753119Y-122206021D01*
X154750297Y-122161170D01*
X154748118Y-122106328D01*
X154746514Y-122040097D01*
X154745419Y-121961077D01*
X154744765Y-121867871D01*
X154744484Y-121759079D01*
X154744509Y-121633303D01*
X154744772Y-121489145D01*
X154745206Y-121325207D01*
X154745745Y-121140089D01*
X154746279Y-120961232D01*
X154746805Y-120802374D01*
X154747350Y-120663316D01*
X154747945Y-120542665D01*
X154748619Y-120439028D01*
X154749403Y-120351011D01*
X154750326Y-120277223D01*
X154751419Y-120216269D01*
X154752712Y-120166757D01*
X154754235Y-120127293D01*
X154756019Y-120096484D01*
X154758092Y-120072938D01*
X154760486Y-120055260D01*
X154763230Y-120042059D01*
X154766356Y-120031940D01*
X154769892Y-120023511D01*
X154773791Y-120015375D01*
X154793438Y-119978544D01*
X154812225Y-119948391D01*
X154813272Y-119946908D01*
X154827602Y-119924659D01*
X154833511Y-119911702D01*
X154832504Y-119911249D01*
X154815305Y-119909803D01*
X154778656Y-119908480D01*
X154724962Y-119907316D01*
X154656630Y-119906347D01*
X154576064Y-119905611D01*
X154485670Y-119905142D01*
X154387853Y-119904978D01*
X153942195Y-119904978D01*
X153939120Y-121081845D01*
X153936045Y-122258711D01*
X153909407Y-122317622D01*
X153897485Y-122342183D01*
X153880246Y-122372434D01*
X153867074Y-122389560D01*
X153859076Y-122397591D01*
X153851378Y-122412493D01*
X153559942Y-122412493D01*
X153559474Y-122320029D01*
X153559050Y-122204617D01*
X153558706Y-122074160D01*
X153558434Y-121927716D01*
X153558227Y-121764344D01*
X153558076Y-121583101D01*
X153557972Y-121383048D01*
X153557908Y-121163241D01*
X153557876Y-120922739D01*
X153557867Y-120660602D01*
X153557867Y-118469031D01*
X153596249Y-118430649D01*
X153623355Y-118406911D01*
X153650253Y-118395111D01*
X153686560Y-118392267D01*
X153738489Y-118392267D01*
X153738489Y-118480206D01*
X153740427Y-118530102D01*
X153759199Y-118640523D01*
X153796217Y-118741987D01*
X153849369Y-118833152D01*
X153916546Y-118912673D01*
X153995638Y-118979205D01*
X154084534Y-119031406D01*
X154181125Y-119067930D01*
X154283300Y-119087434D01*
X154388950Y-119088573D01*
X154495964Y-119070005D01*
X154602232Y-119030384D01*
X154699219Y-118972516D01*
X154784293Y-118897684D01*
X154853015Y-118809615D01*
X154903918Y-118710616D01*
X154935535Y-118602993D01*
X154946400Y-118489054D01*
X154946400Y-118392267D01*
X156566753Y-118392267D01*
X156777897Y-118392280D01*
X156982020Y-118392330D01*
X157165686Y-118392430D01*
X157329991Y-118392592D01*
X157476029Y-118392829D01*
X157604894Y-118393153D01*
X157717683Y-118393575D01*
X157815488Y-118394109D01*
X157899404Y-118394767D01*
X157970527Y-118395561D01*
X158029950Y-118396504D01*
X158078768Y-118397608D01*
X158118077Y-118398884D01*
X158148969Y-118400347D01*
X158172541Y-118402007D01*
X158189886Y-118403878D01*
X158202099Y-118405972D01*
X158210275Y-118408300D01*
X158215508Y-118410876D01*
X158221504Y-118414445D01*
X158228279Y-118417978D01*
X158234478Y-118421488D01*
X158240126Y-118425918D01*
X158245247Y-118432208D01*
X158249869Y-118441301D01*
X158254015Y-118454139D01*
X158257713Y-118471662D01*
X158260987Y-118494813D01*
X158263863Y-118524534D01*
X158266367Y-118561765D01*
X158268524Y-118607449D01*
X158270360Y-118662527D01*
X158271900Y-118727941D01*
X158273170Y-118804633D01*
X158274195Y-118893544D01*
X158275001Y-118995617D01*
X158275034Y-119001867D01*
X158275614Y-119111792D01*
G36*
X158275614Y-119111792D02*
G01*
X158276059Y-119243011D01*
X158276362Y-119390216D01*
X158276548Y-119554349D01*
X158276642Y-119736352D01*
X158276671Y-119937165D01*
X158276661Y-120157732D01*
X158276636Y-120398992D01*
X158276622Y-120661889D01*
X158276622Y-120704040D01*
X158276646Y-120964668D01*
X158276685Y-121203796D01*
X158276708Y-121422360D01*
X158276687Y-121621295D01*
X158276593Y-121801535D01*
X158276395Y-121964015D01*
X158276063Y-122109670D01*
X158275569Y-122239434D01*
X158274883Y-122354243D01*
X158273976Y-122455030D01*
X158272817Y-122542730D01*
X158271378Y-122618279D01*
X158269629Y-122682611D01*
X158267540Y-122736661D01*
X158265083Y-122781363D01*
X158262227Y-122817652D01*
X158258943Y-122846463D01*
X158255202Y-122868731D01*
X158250974Y-122885390D01*
X158246229Y-122897375D01*
X158240939Y-122905621D01*
X158235073Y-122911062D01*
X158228602Y-122914634D01*
X158221497Y-122917270D01*
X158213728Y-122919906D01*
X158205266Y-122923477D01*
X158200908Y-122925145D01*
X158192395Y-122927111D01*
X158179694Y-122928911D01*
X158161885Y-122930555D01*
X158138049Y-122932047D01*
X158107266Y-122933397D01*
X158068617Y-122934611D01*
X158021182Y-122935697D01*
X157964043Y-122936661D01*
X157896279Y-122937511D01*
X157816971Y-122938253D01*
X157725199Y-122938897D01*
X157620044Y-122939447D01*
X157500587Y-122939913D01*
X157365908Y-122940300D01*
X157215088Y-122940616D01*
X157047206Y-122940869D01*
X156861345Y-122941066D01*
X156656583Y-122941213D01*
X156432002Y-122941318D01*
X156186682Y-122941389D01*
X155919704Y-122941432D01*
X155881321Y-122941437D01*
X155615922Y-122941480D01*
X155372050Y-122941525D01*
X155148783Y-122941548D01*
X154945196Y-122941524D01*
X154760367Y-122941430D01*
X154593373Y-122941243D01*
X154443290Y-122940939D01*
X154309196Y-122940494D01*
X154190166Y-122939885D01*
X154085279Y-122939089D01*
X153993610Y-122938080D01*
X153914237Y-122936837D01*
X153846237Y-122935335D01*
X153788686Y-122933551D01*
X153740662Y-122931461D01*
X153701240Y-122929042D01*
X153669499Y-122926270D01*
X153644514Y-122923121D01*
X153625364Y-122919572D01*
X153611123Y-122915598D01*
X153600871Y-122911178D01*
X153593682Y-122906286D01*
X153588635Y-122900900D01*
X153584805Y-122894996D01*
X153581271Y-122888549D01*
X153577108Y-122881537D01*
X153576025Y-122879687D01*
X153573813Y-122874180D01*
X153571786Y-122865868D01*
X153569938Y-122853809D01*
X153568261Y-122837063D01*
X153566745Y-122814687D01*
X153565383Y-122785740D01*
X153564167Y-122749280D01*
X153563089Y-122704367D01*
X153562140Y-122650057D01*
X153561312Y-122585410D01*
X153560597Y-122509484D01*
X153559987Y-122421338D01*
X153559942Y-122412493D01*
X153851378Y-122412493D01*
X153855260Y-122413765D01*
X153878520Y-122415791D01*
X153920874Y-122417626D01*
X153980132Y-122419227D01*
X154054107Y-122420549D01*
X154140610Y-122421548D01*
X154237452Y-122422180D01*
X154342445Y-122422400D01*
X155040651Y-122422400D01*
X156195090Y-122422400D01*
X156194456Y-122346200D01*
X156195574Y-122304160D01*
X156201304Y-122268334D01*
X156213890Y-122230772D01*
X156235568Y-122182577D01*
X156238789Y-122175897D01*
X156264188Y-122126359D01*
X156290996Y-122078369D01*
X156313917Y-122041466D01*
X156318485Y-122034834D01*
X156340516Y-122003593D01*
X156372693Y-121958654D01*
X156413457Y-121902147D01*
X156461245Y-121836204D01*
X156514498Y-121762957D01*
X156571655Y-121684536D01*
X156631155Y-121603072D01*
X156691437Y-121520698D01*
X156750940Y-121439544D01*
X156808105Y-121361742D01*
X156861370Y-121289423D01*
X156909174Y-121224718D01*
X156949957Y-121169759D01*
X156982158Y-121126676D01*
X157004216Y-121097602D01*
X157014571Y-121084667D01*
X157019044Y-121080351D01*
X157023236Y-121078312D01*
X157026643Y-121080926D01*
X157029325Y-121089986D01*
X157031341Y-121107285D01*
X157032748Y-121134614D01*
X157033605Y-121173765D01*
X157033970Y-121226533D01*
X157033903Y-121294707D01*
X157033460Y-121380082D01*
X157032702Y-121484449D01*
X157031685Y-121609600D01*
X157031308Y-121654300D01*
X157030169Y-121775395D01*
X157028972Y-121876688D01*
X157027636Y-121960262D01*
X157026077Y-122028204D01*
X157024215Y-122082599D01*
X157021966Y-122125532D01*
X157019248Y-122159089D01*
X157015979Y-122185355D01*
X157012078Y-122206416D01*
X157007461Y-122224357D01*
X156999192Y-122250770D01*
X156975583Y-122312772D01*
X156949685Y-122365573D01*
X156924535Y-122402645D01*
X156923339Y-122404075D01*
X156921168Y-122408424D01*
X156923328Y-122412026D01*
X156931644Y-122414951D01*
X156947940Y-122417269D01*
X156974041Y-122419051D01*
X157011771Y-122420367D01*
X157062956Y-122421286D01*
X157129420Y-122421878D01*
X157212987Y-122422215D01*
X157315483Y-122422365D01*
X157438732Y-122422400D01*
X157970296Y-122422400D01*
X157931523Y-122364783D01*
X157925432Y-122355893D01*
X157914976Y-122341069D01*
X157905579Y-122327422D01*
X157897183Y-122313765D01*
X157889733Y-122298911D01*
X157883173Y-122281670D01*
X157877446Y-122260855D01*
X157872495Y-122235280D01*
X157868266Y-122203755D01*
X157864701Y-122165093D01*
X157861744Y-122118107D01*
X157859340Y-122061608D01*
X157857431Y-121994409D01*
X157855962Y-121915322D01*
X157854876Y-121823160D01*
X157854118Y-121716734D01*
X157853630Y-121594857D01*
X157853358Y-121456341D01*
X157853243Y-121299999D01*
X157853231Y-121124642D01*
X157853265Y-120929082D01*
X157853289Y-120712133D01*
X157853280Y-120589513D01*
X157853243Y-120384447D01*
X157853227Y-120200116D01*
X157853288Y-120035334D01*
X157853484Y-119888916D01*
X157853870Y-119759674D01*
X157854505Y-119646422D01*
X157855444Y-119547975D01*
X157856745Y-119463144D01*
X157858464Y-119390744D01*
X157860659Y-119329589D01*
X157863385Y-119278492D01*
X157866701Y-119236267D01*
X157870662Y-119201727D01*
X157875325Y-119173686D01*
X157880747Y-119150958D01*
X157886986Y-119132356D01*
X157894097Y-119116693D01*
X157902138Y-119102784D01*
X157911166Y-119089441D01*
X157921236Y-119075479D01*
X157932407Y-119059711D01*
X157972197Y-119001867D01*
X156912314Y-119001867D01*
X156950311Y-119064966D01*
X156964993Y-119090005D01*
X156979531Y-119117586D01*
X156991627Y-119145700D01*
X157001532Y-119176551D01*
X157009494Y-119212344D01*
X157015761Y-119255283D01*
X157020582Y-119307574D01*
X157024206Y-119371419D01*
X157026881Y-119449025D01*
X157028857Y-119542594D01*
X157030382Y-119654333D01*
X157031704Y-119786445D01*
X157032613Y-119906434D01*
X157033020Y-120023063D01*
X157032767Y-120118531D01*
X157031857Y-120192556D01*
X157030293Y-120244855D01*
X157028079Y-120275149D01*
X157025220Y-120283156D01*
X157022161Y-120279858D01*
X157004006Y-120258408D01*
X156974275Y-120221889D01*
X156934639Y-120172442D01*
X156886771Y-120112207D01*
X156832343Y-120043327D01*
X156773027Y-119967943D01*
X156710495Y-119888196D01*
X156646421Y-119806228D01*
X156582475Y-119724180D01*
X156520331Y-119644194D01*
X156461661Y-119568411D01*
X156408137Y-119498973D01*
X156361430Y-119438021D01*
X156323214Y-119387696D01*
X156295161Y-119350140D01*
X156278943Y-119327495D01*
X156233635Y-119255212D01*
X156193661Y-119175463D01*
X156172130Y-119107188D01*
X156168827Y-119049844D01*
X156174116Y-119001867D01*
X155042356Y-119002117D01*
X155081867Y-119032722D01*
X155091248Y-119040089D01*
X155154183Y-119094438D01*
X155222997Y-119162259D01*
X155299596Y-119245516D01*
X155385888Y-119346178D01*
X155403052Y-119366847D01*
X155443833Y-119416409D01*
X155493588Y-119477326D01*
X155550955Y-119547898D01*
X155614569Y-119626424D01*
X155683069Y-119711204D01*
X155755090Y-119800537D01*
X155829270Y-119892722D01*
X155844517Y-119911702D01*
X155904246Y-119986060D01*
X155978653Y-120078848D01*
X156051131Y-120169388D01*
X156120314Y-120255978D01*
X156184841Y-120336918D01*
X156243347Y-120410506D01*
X156294470Y-120475044D01*
X156336847Y-120528829D01*
X156369115Y-120570162D01*
X156389910Y-120597342D01*
X156397869Y-120608668D01*
X156396111Y-120612771D01*
X156383230Y-120633334D01*
X156358885Y-120669561D01*
X156324247Y-120719824D01*
X156280486Y-120782492D01*
X156228775Y-120855936D01*
X156170284Y-120938527D01*
X156106184Y-121028636D01*
X156037646Y-121124631D01*
X155965843Y-121224885D01*
X155891944Y-121327768D01*
X155817121Y-121431650D01*
X155742545Y-121534901D01*
X155669387Y-121635892D01*
X155598819Y-121732994D01*
X155532011Y-121824577D01*
X155470135Y-121909011D01*
X155414361Y-121984667D01*
X155365862Y-122049916D01*
X155325807Y-122103128D01*
X155295369Y-122142673D01*
X155274944Y-122168026D01*
X155228899Y-122222295D01*
X155178612Y-122278775D01*
X155131815Y-122328669D01*
X155040651Y-122422400D01*
X154342445Y-122422400D01*
X154411356Y-122422349D01*
X154509607Y-122422091D01*
X154599030Y-122421637D01*
X154677333Y-122421010D01*
X154742223Y-122420235D01*
X154791411Y-122419335D01*
X154822604Y-122418334D01*
X154833511Y-122417257D01*
X154832322Y-122414037D01*
X154822176Y-122396452D01*
X154805040Y-122370158D01*
X154796540Y-122357691D01*
X154787329Y-122343622D01*
X154779233Y-122329351D01*
X154772185Y-122313479D01*
X154766117Y-122294609D01*
X154760961Y-122271341D01*
X154756651Y-122242278D01*
X154753119Y-122206021D01*
X154750297Y-122161170D01*
X154748118Y-122106328D01*
X154746514Y-122040097D01*
X154745419Y-121961077D01*
X154744765Y-121867871D01*
X154744484Y-121759079D01*
X154744509Y-121633303D01*
X154744772Y-121489145D01*
X154745206Y-121325207D01*
X154745745Y-121140089D01*
X154746279Y-120961232D01*
X154746805Y-120802374D01*
X154747350Y-120663316D01*
X154747945Y-120542665D01*
X154748619Y-120439028D01*
X154749403Y-120351011D01*
X154750326Y-120277223D01*
X154751419Y-120216269D01*
X154752712Y-120166757D01*
X154754235Y-120127293D01*
X154756019Y-120096484D01*
X154758092Y-120072938D01*
X154760486Y-120055260D01*
X154763230Y-120042059D01*
X154766356Y-120031940D01*
X154769892Y-120023511D01*
X154773791Y-120015375D01*
X154793438Y-119978544D01*
X154812225Y-119948391D01*
X154813272Y-119946908D01*
X154827602Y-119924659D01*
X154833511Y-119911702D01*
X154832504Y-119911249D01*
X154815305Y-119909803D01*
X154778656Y-119908480D01*
X154724962Y-119907316D01*
X154656630Y-119906347D01*
X154576064Y-119905611D01*
X154485670Y-119905142D01*
X154387853Y-119904978D01*
X153942195Y-119904978D01*
X153939120Y-121081845D01*
X153936045Y-122258711D01*
X153909407Y-122317622D01*
X153897485Y-122342183D01*
X153880246Y-122372434D01*
X153867074Y-122389560D01*
X153859076Y-122397591D01*
X153851378Y-122412493D01*
X153559942Y-122412493D01*
X153559474Y-122320029D01*
X153559050Y-122204617D01*
X153558706Y-122074160D01*
X153558434Y-121927716D01*
X153558227Y-121764344D01*
X153558076Y-121583101D01*
X153557972Y-121383048D01*
X153557908Y-121163241D01*
X153557876Y-120922739D01*
X153557867Y-120660602D01*
X153557867Y-118469031D01*
X153596249Y-118430649D01*
X153623355Y-118406911D01*
X153650253Y-118395111D01*
X153686560Y-118392267D01*
X153738489Y-118392267D01*
X153738489Y-118480206D01*
X153740427Y-118530102D01*
X153759199Y-118640523D01*
X153796217Y-118741987D01*
X153849369Y-118833152D01*
X153916546Y-118912673D01*
X153995638Y-118979205D01*
X154084534Y-119031406D01*
X154181125Y-119067930D01*
X154283300Y-119087434D01*
X154388950Y-119088573D01*
X154495964Y-119070005D01*
X154602232Y-119030384D01*
X154699219Y-118972516D01*
X154784293Y-118897684D01*
X154853015Y-118809615D01*
X154903918Y-118710616D01*
X154935535Y-118602993D01*
X154946400Y-118489054D01*
X154946400Y-118392267D01*
X156566753Y-118392267D01*
X156777897Y-118392280D01*
X156982020Y-118392330D01*
X157165686Y-118392430D01*
X157329991Y-118392592D01*
X157476029Y-118392829D01*
X157604894Y-118393153D01*
X157717683Y-118393575D01*
X157815488Y-118394109D01*
X157899404Y-118394767D01*
X157970527Y-118395561D01*
X158029950Y-118396504D01*
X158078768Y-118397608D01*
X158118077Y-118398884D01*
X158148969Y-118400347D01*
X158172541Y-118402007D01*
X158189886Y-118403878D01*
X158202099Y-118405972D01*
X158210275Y-118408300D01*
X158215508Y-118410876D01*
X158221504Y-118414445D01*
X158228279Y-118417978D01*
X158234478Y-118421488D01*
X158240126Y-118425918D01*
X158245247Y-118432208D01*
X158249869Y-118441301D01*
X158254015Y-118454139D01*
X158257713Y-118471662D01*
X158260987Y-118494813D01*
X158263863Y-118524534D01*
X158266367Y-118561765D01*
X158268524Y-118607449D01*
X158270360Y-118662527D01*
X158271900Y-118727941D01*
X158273170Y-118804633D01*
X158274195Y-118893544D01*
X158275001Y-118995617D01*
X158275034Y-119001867D01*
X158275614Y-119111792D01*
G37*
%TD*%
M02*
