%TF.GenerationSoftware,KiCad,Pcbnew,9.0.3*%
%TF.CreationDate,2025-08-26T14:38:20+05:30*%
%TF.ProjectId,Project 1 LED Torch,50726f6a-6563-4742-9031-204c45442054,1*%
%TF.SameCoordinates,Original*%
%TF.FileFunction,Drillmap*%
%TF.FilePolarity,Positive*%
%FSLAX45Y45*%
G04 Gerber Fmt 4.5, Leading zero omitted, Abs format (unit mm)*
G04 Created by KiCad (PCBNEW 9.0.3) date 2025-08-26 14:38:20*
%MOMM*%
%LPD*%
G01*
G04 APERTURE LIST*
%ADD10C,0.050000*%
%ADD11C,0.200000*%
G04 APERTURE END LIST*
D10*
X11100000Y-12800000D02*
G75*
G02*
X11100000Y-11700000I0J550000D01*
G01*
X16800000Y-11802877D02*
G75*
G02*
X16897123Y-11900000I0J-97123D01*
G01*
X16428627Y-12750000D02*
G75*
G02*
X13992927Y-12800000I-1228627J500000D01*
G01*
X11100000Y-11700000D02*
X14000000Y-11700000D01*
X11830278Y-12262500D02*
G75*
G02*
X11469722Y-12262500I-180278J0D01*
G01*
X11469722Y-12262500D02*
G75*
G02*
X11830278Y-12262500I180278J0D01*
G01*
X11100000Y-12800000D02*
X13992927Y-12800000D01*
X14000000Y-11700000D02*
G75*
G02*
X16442007Y-11802877I1200000J-550000D01*
G01*
X16428627Y-12750000D02*
X16750000Y-12750000D01*
X16897123Y-11900000D02*
X16900000Y-12600000D01*
X16900000Y-12600000D02*
G75*
G02*
X16750000Y-12750000I-150000J0D01*
G01*
X16442007Y-11802877D02*
X16800000Y-11802877D01*
D11*
X10808277Y-13890454D02*
X10808277Y-13690454D01*
X10808277Y-13690454D02*
X10855896Y-13690454D01*
X10855896Y-13690454D02*
X10884467Y-13699978D01*
X10884467Y-13699978D02*
X10903515Y-13719026D01*
X10903515Y-13719026D02*
X10913039Y-13738073D01*
X10913039Y-13738073D02*
X10922563Y-13776169D01*
X10922563Y-13776169D02*
X10922563Y-13804740D01*
X10922563Y-13804740D02*
X10913039Y-13842835D01*
X10913039Y-13842835D02*
X10903515Y-13861883D01*
X10903515Y-13861883D02*
X10884467Y-13880931D01*
X10884467Y-13880931D02*
X10855896Y-13890454D01*
X10855896Y-13890454D02*
X10808277Y-13890454D01*
X11008277Y-13890454D02*
X11008277Y-13757121D01*
X11008277Y-13795216D02*
X11017801Y-13776169D01*
X11017801Y-13776169D02*
X11027324Y-13766645D01*
X11027324Y-13766645D02*
X11046372Y-13757121D01*
X11046372Y-13757121D02*
X11065420Y-13757121D01*
X11132086Y-13890454D02*
X11132086Y-13757121D01*
X11132086Y-13690454D02*
X11122563Y-13699978D01*
X11122563Y-13699978D02*
X11132086Y-13709502D01*
X11132086Y-13709502D02*
X11141610Y-13699978D01*
X11141610Y-13699978D02*
X11132086Y-13690454D01*
X11132086Y-13690454D02*
X11132086Y-13709502D01*
X11255896Y-13890454D02*
X11236848Y-13880931D01*
X11236848Y-13880931D02*
X11227324Y-13861883D01*
X11227324Y-13861883D02*
X11227324Y-13690454D01*
X11360658Y-13890454D02*
X11341610Y-13880931D01*
X11341610Y-13880931D02*
X11332086Y-13861883D01*
X11332086Y-13861883D02*
X11332086Y-13690454D01*
X11589229Y-13890454D02*
X11589229Y-13690454D01*
X11589229Y-13690454D02*
X11655896Y-13833312D01*
X11655896Y-13833312D02*
X11722562Y-13690454D01*
X11722562Y-13690454D02*
X11722562Y-13890454D01*
X11903515Y-13890454D02*
X11903515Y-13785693D01*
X11903515Y-13785693D02*
X11893991Y-13766645D01*
X11893991Y-13766645D02*
X11874943Y-13757121D01*
X11874943Y-13757121D02*
X11836848Y-13757121D01*
X11836848Y-13757121D02*
X11817801Y-13766645D01*
X11903515Y-13880931D02*
X11884467Y-13890454D01*
X11884467Y-13890454D02*
X11836848Y-13890454D01*
X11836848Y-13890454D02*
X11817801Y-13880931D01*
X11817801Y-13880931D02*
X11808277Y-13861883D01*
X11808277Y-13861883D02*
X11808277Y-13842835D01*
X11808277Y-13842835D02*
X11817801Y-13823788D01*
X11817801Y-13823788D02*
X11836848Y-13814264D01*
X11836848Y-13814264D02*
X11884467Y-13814264D01*
X11884467Y-13814264D02*
X11903515Y-13804740D01*
X11998753Y-13757121D02*
X11998753Y-13957121D01*
X11998753Y-13766645D02*
X12017801Y-13757121D01*
X12017801Y-13757121D02*
X12055896Y-13757121D01*
X12055896Y-13757121D02*
X12074943Y-13766645D01*
X12074943Y-13766645D02*
X12084467Y-13776169D01*
X12084467Y-13776169D02*
X12093991Y-13795216D01*
X12093991Y-13795216D02*
X12093991Y-13852359D01*
X12093991Y-13852359D02*
X12084467Y-13871407D01*
X12084467Y-13871407D02*
X12074943Y-13880931D01*
X12074943Y-13880931D02*
X12055896Y-13890454D01*
X12055896Y-13890454D02*
X12017801Y-13890454D01*
X12017801Y-13890454D02*
X11998753Y-13880931D01*
X12179705Y-13871407D02*
X12189229Y-13880931D01*
X12189229Y-13880931D02*
X12179705Y-13890454D01*
X12179705Y-13890454D02*
X12170182Y-13880931D01*
X12170182Y-13880931D02*
X12179705Y-13871407D01*
X12179705Y-13871407D02*
X12179705Y-13890454D01*
X12179705Y-13766645D02*
X12189229Y-13776169D01*
X12189229Y-13776169D02*
X12179705Y-13785693D01*
X12179705Y-13785693D02*
X12170182Y-13776169D01*
X12170182Y-13776169D02*
X12179705Y-13766645D01*
X12179705Y-13766645D02*
X12179705Y-13785693D01*
M02*
